<?xml version="1.0" encoding="us-ascii" standalone="no"?><svg xmlns="http://www.w3.org/2000/svg" xmlns:xlink="http://www.w3.org/1999/xlink" contentStyleType="text/css" height="912px" preserveAspectRatio="none" style="width:1280px;height:912px;background:#FFFFFF;" version="1.1" viewBox="0 0 1280 912" width="1280px" zoomAndPan="magnify"><defs/><g><!--cluster Preditor Terra UI--><g id="cluster_Preditor Terra UI"><path d="M592.5,6.294 L704.5,6.294 A3.75,3.75 0 0 1 707,8.794 L714,29.0939 L921.5,29.0939 A2.5,2.5 0 0 1 924,31.5939 L924,276.794 A2.5,2.5 0 0 1 921.5,279.294 L592.5,279.294 A2.5,2.5 0 0 1 590,276.794 L590,8.794 A2.5,2.5 0 0 1 592.5,6.294 " fill="none" style="stroke:#000000;stroke-width:1.5;"/><line style="stroke:#000000;stroke-width:1.5;" x1="590" x2="714" y1="29.0939" y2="29.0939"/><text fill="#000000" font-family="sans-serif" font-size="14" font-weight="bold" lengthAdjust="spacing" textLength="111" x="594" y="21.2999">Preditor Terra UI</text></g><!--cluster Componentes da UI--><g id="cluster_Componentes da UI"><path d="M8.5,328.294 L144.5,328.294 A3.75,3.75 0 0 1 147,330.794 L154,351.0939 L1099.5,351.0939 A2.5,2.5 0 0 1 1102,353.5939 L1102,631.794 A2.5,2.5 0 0 1 1099.5,634.294 L8.5,634.294 A2.5,2.5 0 0 1 6,631.794 L6,330.794 A2.5,2.5 0 0 1 8.5,328.294 " fill="none" style="stroke:#000000;stroke-width:1.5;"/><line style="stroke:#000000;stroke-width:1.5;" x1="6" x2="154" y1="351.0939" y2="351.0939"/><text fill="#000000" font-family="sans-serif" font-size="14" font-weight="bold" lengthAdjust="spacing" textLength="135" x="10" y="343.2999">Componentes da UI</text></g><!--cluster Manipula??o de Dados--><g id="cluster_Manipula&#231;&#227;o de Dados"><path d="M540.5,683.294 L698.5,683.294 A3.75,3.75 0 0 1 701,685.794 L708,706.0939 L1270.5,706.0939 A2.5,2.5 0 0 1 1273,708.5939 L1273,902.794 A2.5,2.5 0 0 1 1270.5,905.294 L540.5,905.294 A2.5,2.5 0 0 1 538,902.794 L538,685.794 A2.5,2.5 0 0 1 540.5,683.294 " fill="none" style="stroke:#000000;stroke-width:1.5;"/><line style="stroke:#000000;stroke-width:1.5;" x1="538" x2="708" y1="706.0939" y2="706.0939"/><text fill="#000000" font-family="sans-serif" font-size="14" font-weight="bold" lengthAdjust="spacing" textLength="157" x="542" y="698.2999">Manipula&#231;&#227;o de Dados</text></g><!--class PreditorTerraUI--><g id="elem_PreditorTerraUI"><rect codeLine="3" fill="#F1F1F1" height="182.3994" id="PreditorTerraUI" rx="2.5" ry="2.5" style="stroke:#181818;stroke-width:0.5;" width="254" x="630" y="61.294"/><ellipse cx="703.25" cy="77.294" fill="#ADD1B2" rx="11" ry="11" style="stroke:#181818;stroke-width:1.0;"/><path d="M698.25,78.4502 C698.25,80.9502 700.3906,82.7627 703.3125,82.7627 C704.5469,82.7627 705.7188,82.4659 706.4688,81.9502 C707.0781,81.5284 707.4063,81.1065 707.4063,80.7002 C707.4063,80.2315 706.9844,79.8252 706.4844,79.8252 C706.25,79.8252 706.0313,79.9034 705.8281,80.1065 C705.3906,80.544 705.3906,80.544 705.2188,80.6377 C704.7656,80.8721 704.125,81.0127 703.3594,81.0127 C701.3594,81.0127 700.0781,79.9971 700.0781,78.419 L700.0781,77.3721 C700.0781,75.669 701.2969,74.4659 703,74.4659 C703.5781,74.4659 704.1563,74.6065 704.625,74.8565 C705.0938,75.1221 705.2656,75.3096 705.3281,75.669 C705.4531,76.3409 705.7031,76.5909 706.2344,76.5909 C706.5156,76.5909 706.7969,76.4502 706.9844,76.2315 C707.1094,76.0596 707.1563,75.8877 707.1563,75.4502 L707.1563,74.0909 C707.1563,73.669 707.1406,73.5284 707.0156,73.3565 C706.8438,73.1065 706.5625,72.9502 706.2344,72.9502 C705.9219,72.9502 705.7188,73.0596 705.5,73.3252 C704.3281,72.8252 703.8906,72.7159 702.9375,72.7159 C700.2656,72.7159 698.25,74.7315 698.25,77.3565 L698.25,78.4502 Z " fill="#000000"/><text fill="#000000" font-family="sans-serif" font-size="14" lengthAdjust="spacing" textLength="99" x="723.75" y="81.9">PreditorTerraUI</text><line style="stroke:#181818;stroke-width:0.5;" x1="631" x2="883" y1="93.294" y2="93.294"/><rect fill="none" height="6" style="stroke:#C82930;stroke-width:1.0;" width="6" x="638" y="104.1939"/><text fill="#000000" font-family="sans-serif" font-size="14" lengthAdjust="spacing" textLength="64" x="650" y="110.2999">root: tk.Tk</text><rect fill="none" height="6" style="stroke:#C82930;stroke-width:1.0;" width="6" x="638" y="120.9939"/><text fill="#000000" font-family="sans-serif" font-size="14" lengthAdjust="spacing" textLength="117" x="650" y="127.0999">folhaEstudo: None</text><rect fill="none" height="6" style="stroke:#C82930;stroke-width:1.0;" width="6" x="638" y="137.7938"/><text fill="#000000" font-family="sans-serif" font-size="14" lengthAdjust="spacing" textLength="182" x="650" y="143.8998">seletorFolhas: SeletorFolhas</text><rect fill="none" height="6" style="stroke:#C82930;stroke-width:1.0;" width="6" x="638" y="154.5937"/><text fill="#000000" font-family="sans-serif" font-size="14" lengthAdjust="spacing" textLength="139" x="650" y="160.6997">plotFrame: PlotFrame</text><rect fill="none" height="6" style="stroke:#C82930;stroke-width:1.0;" width="6" x="638" y="171.3937"/><text fill="#000000" font-family="sans-serif" font-size="14" lengthAdjust="spacing" textLength="87" x="650" y="177.4996">style: ttk.Style</text><line style="stroke:#181818;stroke-width:0.5;" x1="631" x2="883" y1="185.2936" y2="185.2936"/><rect fill="#F24D5C" height="6" style="stroke:#C82930;stroke-width:1.0;" width="6" x="638" y="196.1936"/><text fill="#000000" font-family="sans-serif" font-size="14" lengthAdjust="spacing" textLength="228" x="650" y="202.2996">dicionarioFolhas: DicionarioFolhas()</text><ellipse cx="641" cy="215.9935" fill="#84BE84" rx="3" ry="3" style="stroke:#038048;stroke-width:1.0;"/><text fill="#000000" font-family="sans-serif" font-size="14" lengthAdjust="spacing" textLength="124" x="650" y="219.0995">__init__(root: tk.Tk)</text><ellipse cx="641" cy="232.7934" fill="#84BE84" rx="3" ry="3" style="stroke:#038048;stroke-width:1.0;"/><text fill="#000000" font-family="sans-serif" font-size="14" lengthAdjust="spacing" textLength="98" x="650" y="235.8994">setup_ui(): void</text></g><!--class SeletorFolhas--><g id="elem_SeletorFolhas"><rect codeLine="16" fill="#F1F1F1" height="165.5995" id="SeletorFolhas" rx="2.5" ry="2.5" style="stroke:#181818;stroke-width:0.5;" width="323" x="46.5" y="408.294"/><ellipse cx="159.75" cy="424.294" fill="#ADD1B2" rx="11" ry="11" style="stroke:#181818;stroke-width:1.0;"/><path d="M154.75,425.4502 C154.75,427.9502 156.8906,429.7627 159.8125,429.7627 C161.0469,429.7627 162.2188,429.4659 162.9688,428.9502 C163.5781,428.5284 163.9063,428.1065 163.9063,427.7002 C163.9063,427.2315 163.4844,426.8252 162.9844,426.8252 C162.75,426.8252 162.5313,426.9034 162.3281,427.1065 C161.8906,427.544 161.8906,427.544 161.7188,427.6377 C161.2656,427.8721 160.625,428.0127 159.8594,428.0127 C157.8594,428.0127 156.5781,426.9971 156.5781,425.419 L156.5781,424.3721 C156.5781,422.669 157.7969,421.4659 159.5,421.4659 C160.0781,421.4659 160.6563,421.6065 161.125,421.8565 C161.5938,422.1221 161.7656,422.3096 161.8281,422.669 C161.9531,423.3409 162.2031,423.5909 162.7344,423.5909 C163.0156,423.5909 163.2969,423.4502 163.4844,423.2315 C163.6094,423.0596 163.6563,422.8877 163.6563,422.4502 L163.6563,421.0909 C163.6563,420.669 163.6406,420.5284 163.5156,420.3565 C163.3438,420.1065 163.0625,419.9502 162.7344,419.9502 C162.4219,419.9502 162.2188,420.0596 162,420.3252 C160.8281,419.8252 160.3906,419.7159 159.4375,419.7159 C156.7656,419.7159 154.75,421.7315 154.75,424.3565 L154.75,425.4502 Z " fill="#000000"/><text fill="#000000" font-family="sans-serif" font-size="14" lengthAdjust="spacing" textLength="88" x="180.25" y="428.9">SeletorFolhas</text><line style="stroke:#181818;stroke-width:0.5;" x1="47.5" x2="368.5" y1="440.294" y2="440.294"/><rect fill="none" height="6" style="stroke:#C82930;stroke-width:1.0;" width="6" x="54.5" y="451.1939"/><text fill="#000000" font-family="sans-serif" font-size="14" lengthAdjust="spacing" textLength="142" x="66.5" y="457.2999">mainFrame: ttk.Frame</text><rect fill="none" height="6" style="stroke:#C82930;stroke-width:1.0;" width="6" x="54.5" y="467.9939"/><text fill="#000000" font-family="sans-serif" font-size="14" lengthAdjust="spacing" textLength="87" x="66.5" y="474.0999">style: ttk.Style</text><line style="stroke:#181818;stroke-width:0.5;" x1="47.5" x2="368.5" y1="481.8938" y2="481.8938"/><ellipse cx="57.5" cy="495.7938" fill="#84BE84" rx="3" ry="3" style="stroke:#038048;stroke-width:1.0;"/><text fill="#000000" font-family="sans-serif" font-size="14" lengthAdjust="spacing" textLength="297" x="66.5" y="498.8998">__init__(mainFrame: ttk.Frame, style: ttk.Style)</text><ellipse cx="57.5" cy="512.5937" fill="#84BE84" rx="3" ry="3" style="stroke:#038048;stroke-width:1.0;"/><text fill="#000000" font-family="sans-serif" font-size="14" lengthAdjust="spacing" textLength="169" x="66.5" y="515.6997">criar_seletor_folhas(): void</text><ellipse cx="57.5" cy="529.3937" fill="#84BE84" rx="3" ry="3" style="stroke:#038048;stroke-width:1.0;"/><text fill="#000000" font-family="sans-serif" font-size="14" lengthAdjust="spacing" textLength="233" x="66.5" y="532.4996">atualizar_valores_folhas(event): void</text><ellipse cx="57.5" cy="546.1936" fill="#84BE84" rx="3" ry="3" style="stroke:#038048;stroke-width:1.0;"/><text fill="#000000" font-family="sans-serif" font-size="14" lengthAdjust="spacing" textLength="270" x="66.5" y="549.2996">atualizar_folha_estudo(folha_estudo): void</text><ellipse cx="57.5" cy="562.9935" fill="#84BE84" rx="3" ry="3" style="stroke:#038048;stroke-width:1.0;"/><text fill="#000000" font-family="sans-serif" font-size="14" lengthAdjust="spacing" textLength="209" x="66.5" y="566.0995">e_gerar_dicionario_folhas(): void</text></g><!--class PlotFrame--><g id="elem_PlotFrame"><rect codeLine="26" fill="#F1F1F1" height="215.9993" id="PlotFrame" rx="2.5" ry="2.5" style="stroke:#181818;stroke-width:0.5;" width="609" x="452.5" y="383.294"/><ellipse cx="719.75" cy="399.294" fill="#ADD1B2" rx="11" ry="11" style="stroke:#181818;stroke-width:1.0;"/><path d="M714.75,400.4502 C714.75,402.9502 716.8906,404.7627 719.8125,404.7627 C721.0469,404.7627 722.2188,404.4659 722.9688,403.9502 C723.5781,403.5284 723.9063,403.1065 723.9063,402.7002 C723.9063,402.2315 723.4844,401.8252 722.9844,401.8252 C722.75,401.8252 722.5313,401.9034 722.3281,402.1065 C721.8906,402.544 721.8906,402.544 721.7188,402.6377 C721.2656,402.8721 720.625,403.0127 719.8594,403.0127 C717.8594,403.0127 716.5781,401.9971 716.5781,400.419 L716.5781,399.3721 C716.5781,397.669 717.7969,396.4659 719.5,396.4659 C720.0781,396.4659 720.6563,396.6065 721.125,396.8565 C721.5938,397.1221 721.7656,397.3096 721.8281,397.669 C721.9531,398.3409 722.2031,398.5909 722.7344,398.5909 C723.0156,398.5909 723.2969,398.4502 723.4844,398.2315 C723.6094,398.0596 723.6563,397.8877 723.6563,397.4502 L723.6563,396.0909 C723.6563,395.669 723.6406,395.5284 723.5156,395.3565 C723.3438,395.1065 723.0625,394.9502 722.7344,394.9502 C722.4219,394.9502 722.2188,395.0596 722,395.3252 C720.8281,394.8252 720.3906,394.7159 719.4375,394.7159 C716.7656,394.7159 714.75,396.7315 714.75,399.3565 L714.75,400.4502 Z " fill="#000000"/><text fill="#000000" font-family="sans-serif" font-size="14" lengthAdjust="spacing" textLength="66" x="740.25" y="403.9">PlotFrame</text><line style="stroke:#181818;stroke-width:0.5;" x1="453.5" x2="1060.5" y1="415.294" y2="415.294"/><rect fill="none" height="6" style="stroke:#C82930;stroke-width:1.0;" width="6" x="460.5" y="426.1939"/><text fill="#000000" font-family="sans-serif" font-size="14" lengthAdjust="spacing" textLength="145" x="472.5" y="432.2999">main_frame: ttk.Frame</text><rect fill="none" height="6" style="stroke:#C82930;stroke-width:1.0;" width="6" x="460.5" y="442.9939"/><text fill="#000000" font-family="sans-serif" font-size="14" lengthAdjust="spacing" textLength="221" x="472.5" y="449.0999">dicionario_folhas: DicionarioFolhas</text><rect fill="none" height="6" style="stroke:#C82930;stroke-width:1.0;" width="6" x="460.5" y="459.7938"/><text fill="#000000" font-family="sans-serif" font-size="14" lengthAdjust="spacing" textLength="172" x="472.5" y="465.8998">folha_estudo: folha_estudo</text><rect fill="none" height="6" style="stroke:#C82930;stroke-width:1.0;" width="6" x="460.5" y="476.5937"/><text fill="#000000" font-family="sans-serif" font-size="14" lengthAdjust="spacing" textLength="185" x="472.5" y="482.6997">seletor_folhas: SeletorFolhas</text><rect fill="none" height="6" style="stroke:#C82930;stroke-width:1.0;" width="6" x="460.5" y="493.3937"/><text fill="#000000" font-family="sans-serif" font-size="14" lengthAdjust="spacing" textLength="87" x="472.5" y="499.4996">style: ttk.Style</text><line style="stroke:#181818;stroke-width:0.5;" x1="453.5" x2="1060.5" y1="507.2936" y2="507.2936"/><ellipse cx="463.5" cy="521.1936" fill="#84BE84" rx="3" ry="3" style="stroke:#038048;stroke-width:1.0;"/><text fill="#000000" font-family="sans-serif" font-size="14" lengthAdjust="spacing" textLength="583" x="472.5" y="524.2996">__init__(main_frame: ttk.Frame, seletor_folhas: SeletorFolhas, folha_estudo, style: ttk.Style)</text><ellipse cx="463.5" cy="537.9935" fill="#84BE84" rx="3" ry="3" style="stroke:#038048;stroke-width:1.0;"/><text fill="#000000" font-family="sans-serif" font-size="14" lengthAdjust="spacing" textLength="183" x="472.5" y="541.0995">on_canvas_click(event): void</text><ellipse cx="463.5" cy="554.7934" fill="#84BE84" rx="3" ry="3" style="stroke:#038048;stroke-width:1.0;"/><text fill="#000000" font-family="sans-serif" font-size="14" lengthAdjust="spacing" textLength="323" x="472.5" y="557.8994">determine_folha_clicada(ax_x, ax_y): folha_estudo</text><ellipse cx="463.5" cy="571.5934" fill="#84BE84" rx="3" ry="3" style="stroke:#038048;stroke-width:1.0;"/><text fill="#000000" font-family="sans-serif" font-size="14" lengthAdjust="spacing" textLength="112" x="472.5" y="574.6993">plot_frame(): void</text><ellipse cx="463.5" cy="588.3933" fill="#84BE84" rx="3" ry="3" style="stroke:#038048;stroke-width:1.0;"/><text fill="#000000" font-family="sans-serif" font-size="14" lengthAdjust="spacing" textLength="155" x="472.5" y="591.4993">plot_area_estudo(): void</text></g><!--class DicionarioFolhas--><g id="elem_DicionarioFolhas"><rect codeLine="41" fill="#F1F1F1" height="131.9996" id="DicionarioFolhas" rx="2.5" ry="2.5" style="stroke:#181818;stroke-width:0.5;" width="358" x="578" y="738.294"/><ellipse cx="699.75" cy="754.294" fill="#ADD1B2" rx="11" ry="11" style="stroke:#181818;stroke-width:1.0;"/><path d="M694.75,755.4502 C694.75,757.9502 696.8906,759.7627 699.8125,759.7627 C701.0469,759.7627 702.2188,759.4659 702.9688,758.9502 C703.5781,758.5284 703.9063,758.1065 703.9063,757.7002 C703.9063,757.2315 703.4844,756.8252 702.9844,756.8252 C702.75,756.8252 702.5313,756.9034 702.3281,757.1065 C701.8906,757.544 701.8906,757.544 701.7188,757.6377 C701.2656,757.8721 700.625,758.0127 699.8594,758.0127 C697.8594,758.0127 696.5781,756.9971 696.5781,755.419 L696.5781,754.3721 C696.5781,752.669 697.7969,751.4659 699.5,751.4659 C700.0781,751.4659 700.6563,751.6065 701.125,751.8565 C701.5938,752.1221 701.7656,752.3096 701.8281,752.669 C701.9531,753.3409 702.2031,753.5909 702.7344,753.5909 C703.0156,753.5909 703.2969,753.4502 703.4844,753.2315 C703.6094,753.0596 703.6563,752.8877 703.6563,752.4502 L703.6563,751.0909 C703.6563,750.669 703.6406,750.5284 703.5156,750.3565 C703.3438,750.1065 703.0625,749.9502 702.7344,749.9502 C702.4219,749.9502 702.2188,750.0596 702,750.3252 C700.8281,749.8252 700.3906,749.7159 699.4375,749.7159 C696.7656,749.7159 694.75,751.7315 694.75,754.3565 L694.75,755.4502 Z " fill="#000000"/><text fill="#000000" font-family="sans-serif" font-size="14" lengthAdjust="spacing" textLength="106" x="720.25" y="758.9">DicionarioFolhas</text><line style="stroke:#181818;stroke-width:0.5;" x1="579" x2="935" y1="770.294" y2="770.294"/><rect fill="none" height="6" style="stroke:#C82930;stroke-width:1.0;" width="6" x="586" y="781.1939"/><text fill="#000000" font-family="sans-serif" font-size="14" lengthAdjust="spacing" textLength="42" x="598" y="787.2999">file: str</text><rect fill="none" height="6" style="stroke:#C82930;stroke-width:1.0;" width="6" x="586" y="797.9939"/><text fill="#000000" font-family="sans-serif" font-size="14" lengthAdjust="spacing" textLength="151" x="598" y="804.0999">carta_1kk: MultiPolygon</text><rect fill="none" height="6" style="stroke:#C82930;stroke-width:1.0;" width="6" x="586" y="814.7938"/><text fill="#000000" font-family="sans-serif" font-size="14" lengthAdjust="spacing" textLength="73" x="598" y="820.8998">bbox: None</text><line style="stroke:#181818;stroke-width:0.5;" x1="579" x2="935" y1="828.6938" y2="828.6938"/><ellipse cx="589" cy="842.5937" fill="#84BE84" rx="3" ry="3" style="stroke:#038048;stroke-width:1.0;"/><text fill="#000000" font-family="sans-serif" font-size="14" lengthAdjust="spacing" textLength="315" x="598" y="845.6997">gera_dicionario(id_folha, carta, folhas): Dicion&#225;rio</text><ellipse cx="589" cy="859.3937" fill="#84BE84" rx="3" ry="3" style="stroke:#038048;stroke-width:1.0;"/><text fill="#000000" font-family="sans-serif" font-size="14" lengthAdjust="spacing" textLength="332" x="598" y="862.4996">filtrar_id_exato(dicionariofolhas, id_folha): Dicion&#225;rio</text></g><!--class CartografiaSistematica--><g id="elem_CartografiaSistematica"><rect codeLine="49" fill="#F1F1F1" height="131.9996" id="CartografiaSistematica" rx="2.5" ry="2.5" style="stroke:#181818;stroke-width:0.5;" width="262" x="995" y="737.794"/><ellipse cx="1049.75" cy="753.794" fill="#A9DCDF" rx="11" ry="11" style="stroke:#181818;stroke-width:1.0;"/><path d="M1051.2813,755.7315 L1051.6094,756.5284 L1051.3281,756.5284 C1050.875,756.5284 1050.75,756.5596 1050.5781,756.669 C1050.2969,756.8096 1050.125,757.1065 1050.125,757.4034 C1050.125,757.7002 1050.2656,757.9502 1050.5,758.1221 C1050.6719,758.2471 1050.9063,758.294 1051.3281,758.294 L1053.6875,758.294 C1054.0469,758.294 1054.2969,758.2627 1054.4375,758.169 C1054.7031,758.0284 1054.875,757.7159 1054.875,757.4034 C1054.875,757.1377 1054.7344,756.8721 1054.5,756.7002 C1054.3125,756.5752 1054.1563,756.544 1053.7031,756.5284 L1050.3125,748.7002 L1046.5938,748.7002 C1046.1406,748.7002 1046,748.7159 1045.8281,748.8252 C1045.5625,748.9971 1045.3906,749.2784 1045.3906,749.5752 C1045.3906,749.8565 1045.5313,750.1221 1045.7813,750.294 C1045.9531,750.419 1046.1406,750.4502 1046.5938,750.4502 L1047.5625,750.4502 L1044.9844,756.5284 C1044.2344,756.5284 1043.8281,756.8252 1043.8281,757.4034 C1043.8281,758.0127 1044.2188,758.294 1045.0156,758.294 L1047.2813,758.294 C1047.6406,758.294 1047.8906,758.2627 1048.0313,758.169 C1048.2969,758.0127 1048.4688,757.7159 1048.4688,757.4034 C1048.4688,757.1377 1048.3281,756.8721 1048.0938,756.7002 C1047.9063,756.5596 1047.75,756.5284 1047.2813,756.5284 L1046.9844,756.5284 L1047.3281,755.7315 L1051.2813,755.7315 Z M1050.5156,753.9815 L1048.0625,753.9815 L1049.2969,751.1065 L1050.5156,753.9815 Z " fill="#000000"/><text fill="#000000" font-family="sans-serif" font-size="14" font-style="italic" lengthAdjust="spacing" textLength="144" x="1070.25" y="759.744">CartografiaSistematica</text><line style="stroke:#181818;stroke-width:0.5;" x1="996" x2="1256" y1="769.794" y2="769.794"/><rect fill="none" height="6" style="stroke:#C82930;stroke-width:1.0;" width="6" x="1003" y="780.6939"/><text fill="#000000" font-family="sans-serif" font-size="14" lengthAdjust="spacing" textLength="56" x="1015" y="786.7999">folhas: {}</text><rect fill="none" height="6" style="stroke:#C82930;stroke-width:1.0;" width="6" x="1003" y="797.4939"/><text fill="#000000" font-family="sans-serif" font-size="14" lengthAdjust="spacing" textLength="74" x="1015" y="803.5999">carta: None</text><line style="stroke:#181818;stroke-width:0.5;" x1="996" x2="1256" y1="811.3938" y2="811.3938"/><ellipse cx="1006" cy="825.2938" fill="#84BE84" rx="3" ry="3" style="stroke:#038048;stroke-width:1.0;"/><text fill="#000000" font-family="sans-serif" font-size="14" lengthAdjust="spacing" textLength="150" x="1015" y="828.3998">criar_folhas(carta): void</text><ellipse cx="1006" cy="842.0937" fill="#84BE84" rx="3" ry="3" style="stroke:#038048;stroke-width:1.0;"/><text fill="#000000" font-family="sans-serif" font-size="14" lengthAdjust="spacing" textLength="222" x="1015" y="845.1997">gerar_id(left, right, top, bottom): str</text><ellipse cx="1006" cy="858.8937" fill="#84BE84" rx="3" ry="3" style="stroke:#038048;stroke-width:1.0;"/><text fill="#000000" font-family="sans-serif" font-size="14" lengthAdjust="spacing" textLength="236" x="1015" y="861.9996">salvar_folhas(folhas, file_name): void</text></g><!--link PreditorTerraUI to SeletorFolhas--><g id="link_PreditorTerraUI_SeletorFolhas"><path codeLine="58" d="M630.11,205.504 C562.85,235.384 480.09,275.744 411,320.294 C371.06,346.044 330.24,378.684 295.77,408.424 " fill="none" id="PreditorTerraUI-SeletorFolhas" style="stroke:#181818;stroke-width:1.0;"/><text fill="#000000" font-family="sans-serif" font-size="13" lengthAdjust="spacing" textLength="43" x="447" y="308.371">cont&#233;m</text><text fill="#000000" font-family="sans-serif" font-size="13" lengthAdjust="spacing" textLength="7" x="615.1644" y="205.3726">1</text><text fill="#000000" font-family="sans-serif" font-size="13" lengthAdjust="spacing" textLength="7" x="297.0653" y="396.6544">1</text></g><!--link PreditorTerraUI to PlotFrame--><g id="link_PreditorTerraUI_PlotFrame"><path codeLine="59" d="M757,243.024 C757,286.254 757,338.384 757,383.574 " fill="none" id="PreditorTerraUI-PlotFrame" style="stroke:#181818;stroke-width:1.0;"/><text fill="#000000" font-family="sans-serif" font-size="13" lengthAdjust="spacing" textLength="43" x="758" y="308.371">cont&#233;m</text><text fill="#000000" font-family="sans-serif" font-size="13" lengthAdjust="spacing" textLength="7" x="749.0156" y="263.5376">1</text><text fill="#000000" font-family="sans-serif" font-size="13" lengthAdjust="spacing" textLength="7" x="749.732" y="371.8525">1</text></g><!--link PreditorTerraUI to DicionarioFolhas--><g id="link_PreditorTerraUI_DicionarioFolhas"><path codeLine="60" d="M883.81,179.064 C961.3,202.054 1054.37,244.324 1102,320.294 C1178.02,441.544 1189.33,528.914 1102,642.294 C1066.94,687.814 1030.11,653.364 977,675.294 C935.48,692.444 892.22,716.104 855.15,738.384 " fill="none" id="PreditorTerraUI-DicionarioFolhas" style="stroke:#181818;stroke-width:1.0;"/><text fill="#000000" font-family="sans-serif" font-size="13" lengthAdjust="spacing" textLength="34" x="1164" y="495.371">utiliza</text><text fill="#000000" font-family="sans-serif" font-size="13" lengthAdjust="spacing" textLength="7" x="891.8384" y="178.5017">1</text><text fill="#000000" font-family="sans-serif" font-size="13" lengthAdjust="spacing" textLength="7" x="859.6855" y="726.5507">1</text></g><!--link SeletorFolhas to DicionarioFolhas--><g id="link_SeletorFolhas_DicionarioFolhas"><path codeLine="62" d="M309.25,573.154 C340.91,596.854 376.58,621.844 411,642.294 C470.91,677.894 540.05,711.354 600.69,738.414 " fill="none" id="SeletorFolhas-DicionarioFolhas" style="stroke:#181818;stroke-width:1.0;"/><text fill="#000000" font-family="sans-serif" font-size="13" lengthAdjust="spacing" textLength="34" x="447" y="663.371">utiliza</text><text fill="#000000" font-family="sans-serif" font-size="13" lengthAdjust="spacing" textLength="7" x="333.4078" y="594.0927">1</text><text fill="#000000" font-family="sans-serif" font-size="13" lengthAdjust="spacing" textLength="7" x="574.2132" y="726.5844">1</text></g><!--link PlotFrame to DicionarioFolhas--><g id="link_PlotFrame_DicionarioFolhas"><path codeLine="63" d="M757,597.954 C757,644.584 757,697.814 757,738.334 " fill="none" id="PlotFrame-DicionarioFolhas" style="stroke:#181818;stroke-width:1.0;"/><text fill="#000000" font-family="sans-serif" font-size="13" lengthAdjust="spacing" textLength="34" x="758" y="663.371">utiliza</text><text fill="#000000" font-family="sans-serif" font-size="13" lengthAdjust="spacing" textLength="7" x="749.1469" y="619.2745">1</text><text fill="#000000" font-family="sans-serif" font-size="13" lengthAdjust="spacing" textLength="7" x="749.5953" y="726.9519">1</text></g><!--SRC=[dLNDZfim4Bxp55PEe91AU-MwwKfxs2fITi_M14pMmjZ87gAagpnCrKFLvyYBrO1932HHL0xyUBuPpyptUQWWBM3Bo6obMSPHQVBEj0RoyJeZNm6nLoh06DARM-l7gxCrru9efJ0XM7nxBxpLZATSIT1SlIZn2IOXoz5A67dml5dwRh3EL49-ACaycs62sRtxE6l_quDLGk6BXf8bPDM_-b7m8Am9RQBhvlLicXDAkUH8QUYL4dbsmx2kQCt3A24xnRFMT0oEGL3r_NjMPMMpbiWCoQRz6-Gyw5u9NBgiczJ-9-jh8UA9frzGgZbewlfASqU7Lrm70wn1y9yMkWEXD3CzbErifVVmBOwobi_G_vWwCRfbshfS17Cj8TjhJuqzlPDEqlnsAoSRJ2Kv5gHBEXbyJPLvZdTBce-oE4a_lhz5F4ZiFkTAqXJa3WnD1K-BMnnc39akkMIEmmOC6OImf_kOsFiXkj6EUNi2knAkYAarWcPdMTm-J6yWULKBEFqv_LOs8xA4J9dXYHfJDv12pfis6DJUMWeQWJuLHKBUQe5yfSHXgwI7s6pKVZHyvgGHfwVDa6TTO-8ke6F0HBsOJhyiolEtgM0ZR-l7ze0glCJA7OTzo2indEnXOsk155tjptPdjTMGSrXpWwm4j2GDE-3aydKSjs1IOJSCt9bh8LFokYFAir2m76EY-VRJFb1LCTaeH5L6mtRRcGbYTmdRbzeGGwKLo8JyyHzczZGZYqNxM0_dVweadlwMzpnMbr_10-Zbv5TL8s_cM10Cv_P3FfVXz13y7m00]--></g></svg>