<?xml version="1.0" encoding="us-ascii" standalone="no"?><svg xmlns="http://www.w3.org/2000/svg" xmlns:xlink="http://www.w3.org/1999/xlink" contentStyleType="text/css" height="599px" preserveAspectRatio="none" style="width:807px;height:599px;background:#FFFFFF;" version="1.1" viewBox="0 0 807 599" width="807px" zoomAndPan="magnify"><defs/><g><text fill="#000000" font-family="Verdana" font-size="22" font-weight="bold" lengthAdjust="spacing" textLength="505" x="146.5" y="35.4381">Integra&#231;&#227;o de Dados Geol&#243;gicos e Modelos de IA</text><!--cluster Dados--><g id="cluster_Dados"><path d="M63.5,58.6941 L108.5,58.6941 A3.75,3.75 0 0 1 111,61.1941 L118,81.494 L284.5,81.494 A2.5,2.5 0 0 1 287,83.994 L287,201.5941 A2.5,2.5 0 0 1 284.5,204.0941 L63.5,204.0941 A2.5,2.5 0 0 1 61,201.5941 L61,61.1941 A2.5,2.5 0 0 1 63.5,58.6941 " fill="#FFFFFF" style="stroke:#000000;stroke-width:1.0;"/><line style="stroke:#000000;stroke-width:1.0;" x1="61" x2="118" y1="81.494" y2="81.494"/><text fill="#000000" font-family="Verdana" font-size="14" font-weight="bold" lengthAdjust="spacing" textLength="44" x="65" y="73.7">Dados</text></g><!--cluster Banco de Dados--><g id="cluster_Banco de Dados"><path d="M76.5,253.0941 L190.5,253.0941 A3.75,3.75 0 0 1 193,255.5941 L200,275.894 L271.5,275.894 A2.5,2.5 0 0 1 274,278.394 L274,395.9941 A2.5,2.5 0 0 1 271.5,398.4941 L76.5,398.4941 A2.5,2.5 0 0 1 74,395.9941 L74,255.5941 A2.5,2.5 0 0 1 76.5,253.0941 " fill="#FFFFFF" style="stroke:#000000;stroke-width:1.0;"/><line style="stroke:#000000;stroke-width:1.0;" x1="74" x2="200" y1="275.894" y2="275.894"/><text fill="#000000" font-family="Verdana" font-size="14" font-weight="bold" lengthAdjust="spacing" textLength="113" x="78" y="268.1">Banco de Dados</text></g><!--cluster An?lise de Dados--><g id="cluster_An&#225;lise de Dados"><path d="M323.5,261.4941 L444.5,261.4941 A3.75,3.75 0 0 1 447,263.9941 L454,284.294 L797.5,284.294 A2.5,2.5 0 0 1 800,286.794 L800,590.3941 A2.5,2.5 0 0 1 797.5,592.8941 L323.5,592.8941 A2.5,2.5 0 0 1 321,590.3941 L321,263.9941 A2.5,2.5 0 0 1 323.5,261.4941 " fill="#FFFFFF" style="stroke:#000000;stroke-width:1.0;"/><line style="stroke:#000000;stroke-width:1.0;" x1="321" x2="454" y1="284.294" y2="284.294"/><text fill="#000000" font-family="Verdana" font-size="14" font-weight="bold" lengthAdjust="spacing" textLength="120" x="325" y="276.5">An&#225;lise de Dados</text></g><!--cluster Gest?o de Dados--><g id="cluster_Gest&#227;o de Dados"><path d="M13.5,447.4941 L132.5,447.4941 A3.75,3.75 0 0 1 135,449.9941 L142,470.294 L294.5,470.294 A2.5,2.5 0 0 1 297,472.794 L297,573.5941 A2.5,2.5 0 0 1 294.5,576.0941 L13.5,576.0941 A2.5,2.5 0 0 1 11,573.5941 L11,449.9941 A2.5,2.5 0 0 1 13.5,447.4941 " fill="#FFFFFF" style="stroke:#000000;stroke-width:1.0;"/><line style="stroke:#000000;stroke-width:1.0;" x1="11" x2="142" y1="470.294" y2="470.294"/><text fill="#000000" font-family="Verdana" font-size="14" font-weight="bold" lengthAdjust="spacing" textLength="118" x="15" y="462.5">Gest&#227;o de Dados</text></g><!--cluster Geocientistas--><g id="cluster_Geocientistas"><path d="M320.5,59.2941 L416.5,59.2941 A3.75,3.75 0 0 1 419,61.7941 L426,82.094 L557.5,82.094 A2.5,2.5 0 0 1 560,84.594 L560,200.9941 A2.5,2.5 0 0 1 557.5,203.4941 L320.5,203.4941 A2.5,2.5 0 0 1 318,200.9941 L318,61.7941 A2.5,2.5 0 0 1 320.5,59.2941 " fill="#FFFFFF" style="stroke:#000000;stroke-width:1.0;"/><line style="stroke:#000000;stroke-width:1.0;" x1="318" x2="426" y1="82.094" y2="82.094"/><text fill="#000000" font-family="Verdana" font-size="14" font-weight="bold" lengthAdjust="spacing" textLength="95" x="322" y="74.3">Geocientistas</text></g><!--class dados--><g id="elem_dados"><rect codeLine="6" fill="#FFFFFF" height="94.3998" id="dados" rx="2.5" ry="2.5" style="stroke:#000000;stroke-width:1.0;" width="193" x="77.5" y="93.6941"/><ellipse cx="112.55" cy="107.6941" fill="#FFFFFF" rx="9" ry="9" style="stroke:#000000;stroke-width:1.0;"/><path d="M111.4094,108.7566 L112.7219,108.7566 L112.7219,108.8034 C112.7219,109.2097 112.7375,109.3659 112.8469,109.5222 C113.0188,109.7722 113.3156,109.9441 113.6281,109.9441 C113.9094,109.9441 114.2063,109.8034 114.3781,109.5847 C114.5031,109.3972 114.55,109.2566 114.55,108.8034 L114.55,106.9597 C114.55,106.6316 114.5344,106.5222 114.4719,106.3503 C114.3625,106.0534 114.0031,105.8034 113.6281,105.8034 C113.3313,105.8034 113.0656,105.9441 112.8938,106.1628 C112.7531,106.3503 112.7219,106.5222 112.7219,106.9597 L112.7219,107.0222 L111.4094,107.0222 L111.4094,104.8503 L115.2531,104.8503 L115.2531,105.6003 C115.2531,105.9909 115.2844,106.1784 115.3938,106.3347 C115.5656,106.5847 115.8625,106.7566 116.175,106.7566 C116.4719,106.7566 116.7375,106.6316 116.925,106.3972 C117.0656,106.2097 117.0969,106.0691 117.0969,105.6003 L117.0969,103.1003 L109.3938,103.1003 C108.9406,103.1003 108.8156,103.1159 108.6438,103.2253 C108.3781,103.3972 108.2063,103.6628 108.2063,103.9753 C108.2063,104.2566 108.3313,104.5222 108.5813,104.6941 C108.7688,104.8191 108.9563,104.8503 109.3938,104.8503 L109.5813,104.8503 L109.5813,110.9441 L109.3938,110.9441 C108.9719,110.9441 108.8156,110.9753 108.6438,111.0691 C108.3781,111.2253 108.2063,111.5066 108.2063,111.8034 C108.2063,112.3816 108.6125,112.6941 109.3938,112.6941 L117.4719,112.6941 L117.4719,110.1628 C117.4719,109.7566 117.4406,109.5847 117.3313,109.4284 C117.1594,109.1628 116.8781,109.0066 116.55,109.0066 C116.2688,109.0066 115.9875,109.1472 115.8,109.3659 C115.6594,109.5534 115.6281,109.7097 115.6281,110.1628 L115.6281,110.9441 L111.4094,110.9441 L111.4094,108.7566 Z " fill="#000000"/><text fill="#000000" font-family="Verdana" font-size="14" lengthAdjust="spacing" textLength="116" x="129.45" y="112.3001">Dados Geol&#243;gicos</text><line style="stroke:#000000;stroke-width:1.0;" x1="78.5" x2="269.5" y1="121.6941" y2="121.6941"/><rect fill="none" height="6" style="stroke:#000000;stroke-width:1.0;" width="6" x="85.5" y="132.594"/><text fill="#000000" font-family="Verdana" font-size="14" lengthAdjust="spacing" textLength="169" x="95.5" y="138.7">Localiza&#231;&#227;o: Coordenadas</text><rect fill="none" height="6" style="stroke:#000000;stroke-width:1.0;" width="6" x="85.5" y="149.394"/><text fill="#000000" font-family="Verdana" font-size="14" lengthAdjust="spacing" textLength="167" x="95.5" y="155.4999">Dados Categ&#243;rigos: String</text><rect fill="none" height="6" style="stroke:#000000;stroke-width:1.0;" width="6" x="85.5" y="166.1939"/><text fill="#000000" font-family="Verdana" font-size="14" lengthAdjust="spacing" textLength="166" x="95.5" y="172.2999">Dados Num&#233;ricos: Double</text><line style="stroke:#000000;stroke-width:1.0;" x1="78.5" x2="269.5" y1="180.0939" y2="180.0939"/></g><!--class banco--><g id="elem_banco"><rect codeLine="14" fill="#FFFFFF" height="94.3998" id="banco" rx="2.5" ry="2.5" style="stroke:#000000;stroke-width:1.0;" width="168" x="90" y="288.0941"/><ellipse cx="106.15" cy="302.0941" fill="#FFFFFF" rx="9" ry="9" style="stroke:#000000;stroke-width:1.0;"/><path d="M105.0094,303.1566 L106.3219,303.1566 L106.3219,303.2034 C106.3219,303.6097 106.3375,303.7659 106.4469,303.9222 C106.6188,304.1722 106.9156,304.3441 107.2281,304.3441 C107.5094,304.3441 107.8063,304.2034 107.9781,303.9847 C108.1031,303.7972 108.15,303.6566 108.15,303.2034 L108.15,301.3597 C108.15,301.0316 108.1344,300.9222 108.0719,300.7503 C107.9625,300.4534 107.6031,300.2034 107.2281,300.2034 C106.9313,300.2034 106.6656,300.3441 106.4938,300.5628 C106.3531,300.7503 106.3219,300.9222 106.3219,301.3597 L106.3219,301.4222 L105.0094,301.4222 L105.0094,299.2503 L108.8531,299.2503 L108.8531,300.0003 C108.8531,300.3909 108.8844,300.5784 108.9938,300.7347 C109.1656,300.9847 109.4625,301.1566 109.775,301.1566 C110.0719,301.1566 110.3375,301.0316 110.525,300.7972 C110.6656,300.6097 110.6969,300.4691 110.6969,300.0003 L110.6969,297.5003 L102.9938,297.5003 C102.5406,297.5003 102.4156,297.5159 102.2438,297.6253 C101.9781,297.7972 101.8063,298.0628 101.8063,298.3753 C101.8063,298.6566 101.9313,298.9222 102.1813,299.0941 C102.3688,299.2191 102.5563,299.2503 102.9938,299.2503 L103.1813,299.2503 L103.1813,305.3441 L102.9938,305.3441 C102.5719,305.3441 102.4156,305.3753 102.2438,305.4691 C101.9781,305.6253 101.8063,305.9066 101.8063,306.2034 C101.8063,306.7816 102.2125,307.0941 102.9938,307.0941 L111.0719,307.0941 L111.0719,304.5628 C111.0719,304.1566 111.0406,303.9847 110.9313,303.8284 C110.7594,303.5628 110.4781,303.4066 110.15,303.4066 C109.8688,303.4066 109.5875,303.5472 109.4,303.7659 C109.2594,303.9534 109.2281,304.1097 109.2281,304.5628 L109.2281,305.3441 L105.0094,305.3441 L105.0094,303.1566 Z " fill="#000000"/><text fill="#000000" font-family="Verdana" font-size="14" lengthAdjust="spacing" textLength="133" x="118.85" y="306.7001">PostgreSQL/PostGIS</text><line style="stroke:#000000;stroke-width:1.0;" x1="91" x2="257" y1="316.0941" y2="316.0941"/><line style="stroke:#000000;stroke-width:1.0;" x1="91" x2="257" y1="324.0941" y2="324.0941"/><ellipse cx="101" cy="337.994" fill="#FFFFFF" rx="3" ry="3" style="stroke:#000000;stroke-width:1.0;"/><text fill="#000000" font-family="Verdana" font-size="14" lengthAdjust="spacing" textLength="144" x="108" y="341.1">AdicionarDados(): void</text><ellipse cx="101" cy="354.794" fill="#FFFFFF" rx="3" ry="3" style="stroke:#000000;stroke-width:1.0;"/><text fill="#000000" font-family="Verdana" font-size="14" lengthAdjust="spacing" textLength="140" x="108" y="357.8999">AtualizarDados(): void</text><ellipse cx="101" cy="371.5939" fill="#FFFFFF" rx="3" ry="3" style="stroke:#000000;stroke-width:1.0;"/><text fill="#000000" font-family="Verdana" font-size="14" lengthAdjust="spacing" textLength="142" x="108" y="374.6999">ConsultarDados(): List</text></g><!--class modelos--><g id="elem_modelos"><rect codeLine="22" fill="#FFFFFF" height="111.1997" id="modelos" rx="2.5" ry="2.5" style="stroke:#000000;stroke-width:1.0;" width="168" x="382" y="465.6941"/><ellipse cx="417.05" cy="479.6941" fill="#FFFFFF" rx="9" ry="9" style="stroke:#000000;stroke-width:1.0;"/><path d="M415.9094,480.7566 L417.2219,480.7566 L417.2219,480.8034 C417.2219,481.2097 417.2375,481.3659 417.3469,481.5222 C417.5188,481.7722 417.8156,481.9441 418.1281,481.9441 C418.4094,481.9441 418.7063,481.8034 418.8781,481.5847 C419.0031,481.3972 419.05,481.2566 419.05,480.8034 L419.05,478.9597 C419.05,478.6316 419.0344,478.5222 418.9719,478.3503 C418.8625,478.0534 418.5031,477.8034 418.1281,477.8034 C417.8313,477.8034 417.5656,477.9441 417.3938,478.1628 C417.2531,478.3503 417.2219,478.5222 417.2219,478.9597 L417.2219,479.0222 L415.9094,479.0222 L415.9094,476.8503 L419.7531,476.8503 L419.7531,477.6003 C419.7531,477.9909 419.7844,478.1784 419.8938,478.3347 C420.0656,478.5847 420.3625,478.7566 420.675,478.7566 C420.9719,478.7566 421.2375,478.6316 421.425,478.3972 C421.5656,478.2097 421.5969,478.0691 421.5969,477.6003 L421.5969,475.1003 L413.8938,475.1003 C413.4406,475.1003 413.3156,475.1159 413.1438,475.2253 C412.8781,475.3972 412.7063,475.6628 412.7063,475.9753 C412.7063,476.2566 412.8313,476.5222 413.0813,476.6941 C413.2688,476.8191 413.4563,476.8503 413.8938,476.8503 L414.0813,476.8503 L414.0813,482.9441 L413.8938,482.9441 C413.4719,482.9441 413.3156,482.9753 413.1438,483.0691 C412.8781,483.2253 412.7063,483.5066 412.7063,483.8034 C412.7063,484.3816 413.1125,484.6941 413.8938,484.6941 L421.9719,484.6941 L421.9719,482.1628 C421.9719,481.7566 421.9406,481.5847 421.8313,481.4284 C421.6594,481.1628 421.3781,481.0066 421.05,481.0066 C420.7688,481.0066 420.4875,481.1472 420.3,481.3659 C420.1594,481.5534 420.1281,481.7097 420.1281,482.1628 L420.1281,482.9441 L415.9094,482.9441 L415.9094,480.7566 Z " fill="#000000"/><text fill="#000000" font-family="Verdana" font-size="14" lengthAdjust="spacing" textLength="91" x="433.95" y="484.3001">Modelos de IA</text><line style="stroke:#000000;stroke-width:1.0;" x1="383" x2="549" y1="493.6941" y2="493.6941"/><rect fill="none" height="6" style="stroke:#000000;stroke-width:1.0;" width="6" x="390" y="504.594"/><text fill="#000000" font-family="Verdana" font-size="14" lengthAdjust="spacing" textLength="143" x="400" y="510.7">Supervisionado: String</text><rect fill="none" height="6" style="stroke:#000000;stroke-width:1.0;" width="6" x="390" y="521.394"/><text fill="#000000" font-family="Verdana" font-size="14" lengthAdjust="spacing" textLength="131" x="400" y="527.4999">Agrupamento: String</text><line style="stroke:#000000;stroke-width:1.0;" x1="383" x2="549" y1="535.2939" y2="535.2939"/><ellipse cx="393" cy="549.1939" fill="#FFFFFF" rx="3" ry="3" style="stroke:#000000;stroke-width:1.0;"/><text fill="#000000" font-family="Verdana" font-size="14" lengthAdjust="spacing" textLength="144" x="400" y="552.2999">TreinarModelos(): void</text><ellipse cx="393" cy="565.9938" fill="#FFFFFF" rx="3" ry="3" style="stroke:#000000;stroke-width:1.0;"/><text fill="#000000" font-family="Verdana" font-size="14" lengthAdjust="spacing" textLength="139" x="400" y="569.0998">TestarModelos(): void</text></g><!--class mpmp--><g id="elem_mpmp"><rect codeLine="28" fill="#FFFFFF" height="77.5999" id="mpmp" rx="2.5" ry="2.5" style="stroke:#000000;stroke-width:1.0;" width="205" x="336.5" y="296.4941"/><ellipse cx="385.75" cy="310.4941" fill="#FFFFFF" rx="9" ry="9" style="stroke:#000000;stroke-width:1.0;"/><path d="M384.6094,311.5566 L385.9219,311.5566 L385.9219,311.6034 C385.9219,312.0097 385.9375,312.1659 386.0469,312.3222 C386.2188,312.5722 386.5156,312.7441 386.8281,312.7441 C387.1094,312.7441 387.4063,312.6034 387.5781,312.3847 C387.7031,312.1972 387.75,312.0566 387.75,311.6034 L387.75,309.7597 C387.75,309.4316 387.7344,309.3222 387.6719,309.1503 C387.5625,308.8534 387.2031,308.6034 386.8281,308.6034 C386.5313,308.6034 386.2656,308.7441 386.0938,308.9628 C385.9531,309.1503 385.9219,309.3222 385.9219,309.7597 L385.9219,309.8222 L384.6094,309.8222 L384.6094,307.6503 L388.4531,307.6503 L388.4531,308.4003 C388.4531,308.7909 388.4844,308.9784 388.5938,309.1347 C388.7656,309.3847 389.0625,309.5566 389.375,309.5566 C389.6719,309.5566 389.9375,309.4316 390.125,309.1972 C390.2656,309.0097 390.2969,308.8691 390.2969,308.4003 L390.2969,305.9003 L382.5938,305.9003 C382.1406,305.9003 382.0156,305.9159 381.8438,306.0253 C381.5781,306.1972 381.4063,306.4628 381.4063,306.7753 C381.4063,307.0566 381.5313,307.3222 381.7813,307.4941 C381.9688,307.6191 382.1563,307.6503 382.5938,307.6503 L382.7813,307.6503 L382.7813,313.7441 L382.5938,313.7441 C382.1719,313.7441 382.0156,313.7753 381.8438,313.8691 C381.5781,314.0253 381.4063,314.3066 381.4063,314.6034 C381.4063,315.1816 381.8125,315.4941 382.5938,315.4941 L390.6719,315.4941 L390.6719,312.9628 C390.6719,312.5566 390.6406,312.3847 390.5313,312.2284 C390.3594,311.9628 390.0781,311.8066 389.75,311.8066 C389.4688,311.8066 389.1875,311.9472 389,312.1659 C388.8594,312.3534 388.8281,312.5097 388.8281,312.9628 L388.8281,313.7441 L384.6094,313.7441 L384.6094,311.5566 Z " fill="#000000"/><text fill="#000000" font-family="Verdana" font-size="14" lengthAdjust="spacing" textLength="99" x="403.25" y="315.1001">MPM Preditivos</text><line style="stroke:#000000;stroke-width:1.0;" x1="337.5" x2="540.5" y1="324.4941" y2="324.4941"/><rect fill="none" height="6" style="stroke:#000000;stroke-width:1.0;" width="6" x="344.5" y="335.394"/><text fill="#000000" font-family="Verdana" font-size="14" lengthAdjust="spacing" textLength="181" x="354.5" y="341.5">Prob. de Ocorr&#234;ncia: Double</text><rect fill="none" height="6" style="stroke:#000000;stroke-width:1.0;" width="6" x="344.5" y="352.194"/><text fill="#000000" font-family="Verdana" font-size="14" lengthAdjust="spacing" textLength="108" x="354.5" y="358.2999">Precis&#227;o: Double</text><line style="stroke:#000000;stroke-width:1.0;" x1="337.5" x2="540.5" y1="366.0939" y2="366.0939"/></g><!--class mlp--><g id="elem_mlp"><rect codeLine="32" fill="#FFFFFF" height="77.5999" id="mlp" rx="2.5" ry="2.5" style="stroke:#000000;stroke-width:1.0;" width="208" x="576" y="296.4941"/><ellipse cx="589" cy="310.4941" fill="#FFFFFF" rx="9" ry="9" style="stroke:#000000;stroke-width:1.0;"/><path d="M587.8594,311.5566 L589.1719,311.5566 L589.1719,311.6034 C589.1719,312.0097 589.1875,312.1659 589.2969,312.3222 C589.4688,312.5722 589.7656,312.7441 590.0781,312.7441 C590.3594,312.7441 590.6563,312.6034 590.8281,312.3847 C590.9531,312.1972 591,312.0566 591,311.6034 L591,309.7597 C591,309.4316 590.9844,309.3222 590.9219,309.1503 C590.8125,308.8534 590.4531,308.6034 590.0781,308.6034 C589.7813,308.6034 589.5156,308.7441 589.3438,308.9628 C589.2031,309.1503 589.1719,309.3222 589.1719,309.7597 L589.1719,309.8222 L587.8594,309.8222 L587.8594,307.6503 L591.7031,307.6503 L591.7031,308.4003 C591.7031,308.7909 591.7344,308.9784 591.8438,309.1347 C592.0156,309.3847 592.3125,309.5566 592.625,309.5566 C592.9219,309.5566 593.1875,309.4316 593.375,309.1972 C593.5156,309.0097 593.5469,308.8691 593.5469,308.4003 L593.5469,305.9003 L585.8438,305.9003 C585.3906,305.9003 585.2656,305.9159 585.0938,306.0253 C584.8281,306.1972 584.6563,306.4628 584.6563,306.7753 C584.6563,307.0566 584.7813,307.3222 585.0313,307.4941 C585.2188,307.6191 585.4063,307.6503 585.8438,307.6503 L586.0313,307.6503 L586.0313,313.7441 L585.8438,313.7441 C585.4219,313.7441 585.2656,313.7753 585.0938,313.8691 C584.8281,314.0253 584.6563,314.3066 584.6563,314.6034 C584.6563,315.1816 585.0625,315.4941 585.8438,315.4941 L593.9219,315.4941 L593.9219,312.9628 C593.9219,312.5566 593.8906,312.3847 593.7813,312.2284 C593.6094,311.9628 593.3281,311.8066 593,311.8066 C592.7188,311.8066 592.4375,311.9472 592.25,312.1659 C592.1094,312.3534 592.0781,312.5097 592.0781,312.9628 L592.0781,313.7441 L587.8594,313.7441 L587.8594,311.5566 Z " fill="#000000"/><text fill="#000000" font-family="Verdana" font-size="14" lengthAdjust="spacing" textLength="180" x="601" y="315.1001">Mapas Litol&#243;gicos Preditivos</text><line style="stroke:#000000;stroke-width:1.0;" x1="577" x2="783" y1="324.4941" y2="324.4941"/><rect fill="none" height="6" style="stroke:#000000;stroke-width:1.0;" width="6" x="584" y="335.394"/><text fill="#000000" font-family="Verdana" font-size="14" lengthAdjust="spacing" textLength="151" x="594" y="341.5">Classes Litol&#243;gicas: List</text><rect fill="none" height="6" style="stroke:#000000;stroke-width:1.0;" width="6" x="584" y="352.194"/><text fill="#000000" font-family="Verdana" font-size="14" lengthAdjust="spacing" textLength="108" x="594" y="358.2999">Precis&#227;o: Double</text><line style="stroke:#000000;stroke-width:1.0;" x1="577" x2="783" y1="366.0939" y2="366.0939"/></g><!--class articulacao--><g id="elem_articulacao"><rect codeLine="39" fill="#FFFFFF" height="77.5999" id="articulacao" rx="2.5" ry="2.5" style="stroke:#000000;stroke-width:1.0;" width="254" x="27" y="482.4941"/><ellipse cx="40" cy="496.4941" fill="#FFFFFF" rx="9" ry="9" style="stroke:#000000;stroke-width:1.0;"/><path d="M38.8594,497.5566 L40.1719,497.5566 L40.1719,497.6034 C40.1719,498.0097 40.1875,498.1659 40.2969,498.3222 C40.4688,498.5722 40.7656,498.7441 41.0781,498.7441 C41.3594,498.7441 41.6563,498.6034 41.8281,498.3847 C41.9531,498.1972 42,498.0566 42,497.6034 L42,495.7597 C42,495.4316 41.9844,495.3222 41.9219,495.1503 C41.8125,494.8534 41.4531,494.6034 41.0781,494.6034 C40.7813,494.6034 40.5156,494.7441 40.3438,494.9628 C40.2031,495.1503 40.1719,495.3222 40.1719,495.7597 L40.1719,495.8222 L38.8594,495.8222 L38.8594,493.6503 L42.7031,493.6503 L42.7031,494.4003 C42.7031,494.7909 42.7344,494.9784 42.8438,495.1347 C43.0156,495.3847 43.3125,495.5566 43.625,495.5566 C43.9219,495.5566 44.1875,495.4316 44.375,495.1972 C44.5156,495.0097 44.5469,494.8691 44.5469,494.4003 L44.5469,491.9003 L36.8438,491.9003 C36.3906,491.9003 36.2656,491.9159 36.0938,492.0253 C35.8281,492.1972 35.6563,492.4628 35.6563,492.7753 C35.6563,493.0566 35.7813,493.3222 36.0313,493.4941 C36.2188,493.6191 36.4063,493.6503 36.8438,493.6503 L37.0313,493.6503 L37.0313,499.7441 L36.8438,499.7441 C36.4219,499.7441 36.2656,499.7753 36.0938,499.8691 C35.8281,500.0253 35.6563,500.3066 35.6563,500.6034 C35.6563,501.1816 36.0625,501.4941 36.8438,501.4941 L44.9219,501.4941 L44.9219,498.9628 C44.9219,498.5566 44.8906,498.3847 44.7813,498.2284 C44.6094,497.9628 44.3281,497.8066 44,497.8066 C43.7188,497.8066 43.4375,497.9472 43.25,498.1659 C43.1094,498.3534 43.0781,498.5097 43.0781,498.9628 L43.0781,499.7441 L38.8594,499.7441 L38.8594,497.5566 Z " fill="#000000"/><text fill="#000000" font-family="Verdana" font-size="14" lengthAdjust="spacing" textLength="226" x="52" y="501.1001">Articula&#231;&#227;o de Folhas Cartogr&#225;ficas</text><line style="stroke:#000000;stroke-width:1.0;" x1="28" x2="280" y1="510.4941" y2="510.4941"/><line style="stroke:#000000;stroke-width:1.0;" x1="28" x2="280" y1="518.4941" y2="518.4941"/><ellipse cx="38" cy="532.394" fill="#FFFFFF" rx="3" ry="3" style="stroke:#000000;stroke-width:1.0;"/><text fill="#000000" font-family="Verdana" font-size="14" lengthAdjust="spacing" textLength="143" x="45" y="535.5">DefinirEstrutura(): void</text><ellipse cx="38" cy="549.194" fill="#FFFFFF" rx="3" ry="3" style="stroke:#000000;stroke-width:1.0;"/><text fill="#000000" font-family="Verdana" font-size="14" lengthAdjust="spacing" textLength="154" x="45" y="552.2999">PadronizarDados(): void</text></g><!--class validacao--><g id="elem_validacao"><rect codeLine="48" fill="#FFFFFF" height="93.1997" id="validacao" rx="2.5" ry="2.5" style="stroke:#000000;stroke-width:1.0;" width="209" x="334.5" y="94.2941"/><ellipse cx="373.25" cy="116.094" fill="#FFFFFF" rx="9" ry="9" style="stroke:#000000;stroke-width:1.0;"/><path d="M372.1094,117.1565 L373.4219,117.1565 L373.4219,117.2034 C373.4219,117.6096 373.4375,117.7659 373.5469,117.9221 C373.7188,118.1721 374.0156,118.344 374.3281,118.344 C374.6094,118.344 374.9063,118.2034 375.0781,117.9846 C375.2031,117.7971 375.25,117.6565 375.25,117.2034 L375.25,115.3596 C375.25,115.0315 375.2344,114.9221 375.1719,114.7502 C375.0625,114.4534 374.7031,114.2034 374.3281,114.2034 C374.0313,114.2034 373.7656,114.344 373.5938,114.5627 C373.4531,114.7502 373.4219,114.9221 373.4219,115.3596 L373.4219,115.4221 L372.1094,115.4221 L372.1094,113.2502 L375.9531,113.2502 L375.9531,114.0002 C375.9531,114.3909 375.9844,114.5784 376.0938,114.7346 C376.2656,114.9846 376.5625,115.1565 376.875,115.1565 C377.1719,115.1565 377.4375,115.0315 377.625,114.7971 C377.7656,114.6096 377.7969,114.469 377.7969,114.0002 L377.7969,111.5002 L370.0938,111.5002 C369.6406,111.5002 369.5156,111.5159 369.3438,111.6252 C369.0781,111.7971 368.9063,112.0627 368.9063,112.3752 C368.9063,112.6565 369.0313,112.9221 369.2813,113.094 C369.4688,113.219 369.6563,113.2502 370.0938,113.2502 L370.2813,113.2502 L370.2813,119.344 L370.0938,119.344 C369.6719,119.344 369.5156,119.3752 369.3438,119.469 C369.0781,119.6252 368.9063,119.9065 368.9063,120.2034 C368.9063,120.7815 369.3125,121.094 370.0938,121.094 L378.1719,121.094 L378.1719,118.5627 C378.1719,118.1565 378.1406,117.9846 378.0313,117.8284 C377.8594,117.5627 377.5781,117.4065 377.25,117.4065 C376.9688,117.4065 376.6875,117.5471 376.5,117.7659 C376.3594,117.9534 376.3281,118.1096 376.3281,118.5627 L376.3281,119.344 L372.1094,119.344 L372.1094,117.1565 Z " fill="#000000"/><text fill="#000000" font-family="Verdana" font-size="14" lengthAdjust="spacing" textLength="124" x="390.75" y="112.3">Valida&#231;&#227;o e An&#225;lise</text><text fill="#000000" font-family="Verdana" font-size="14" lengthAdjust="spacing" textLength="107" x="399.25" y="129.0999">por Especialistas</text><line style="stroke:#000000;stroke-width:1.0;" x1="335.5" x2="542.5" y1="137.8939" y2="137.8939"/><line style="stroke:#000000;stroke-width:1.0;" x1="335.5" x2="542.5" y1="145.8939" y2="145.8939"/><ellipse cx="345.5" cy="159.7939" fill="#FFFFFF" rx="3" ry="3" style="stroke:#000000;stroke-width:1.0;"/><text fill="#000000" font-family="Verdana" font-size="14" lengthAdjust="spacing" textLength="185" x="352.5" y="162.8999">ValidarResultados(): Boolean</text><ellipse cx="345.5" cy="176.5938" fill="#FFFFFF" rx="3" ry="3" style="stroke:#000000;stroke-width:1.0;"/><text fill="#000000" font-family="Verdana" font-size="14" lengthAdjust="spacing" textLength="169" x="352.5" y="179.6998">AnalisarPrecis&#227;o(): Double</text></g><!--link dados to banco--><g id="link_dados_banco"><path codeLine="55" d="M174,188.4741 C174,218.6041 174,251.6941 174,281.8141 " fill="none" id="dados-to-banco" style="stroke:#000000;stroke-width:1.0;"/><polygon fill="#000000" points="174,287.8141,178,278.8141,174,282.8141,170,278.8141,174,287.8141" style="stroke:#000000;stroke-width:1.0;"/><text fill="#000000" font-family="Verdana" font-size="13" lengthAdjust="spacing" textLength="73" x="175" y="233.1711">armazena -&gt;</text></g><!--link banco to articulacao--><g id="link_banco_articulacao"><path codeLine="56" d="M168.95,382.7241 C165.61,413.4941 161.9283,447.3892 158.7883,476.2792 " fill="none" id="banco-to-articulacao" style="stroke:#000000;stroke-width:1.0;"/><polygon fill="#000000" points="158.14,482.2441,163.089,473.729,158.6803,477.2733,155.1359,472.8646,158.14,482.2441" style="stroke:#000000;stroke-width:1.0;"/><text fill="#000000" font-family="Verdana" font-size="13" lengthAdjust="spacing" textLength="67" x="167" y="427.5711">estrutura -&gt;</text></g><!--link articulacao to modelos--><g id="link_articulacao_modelos"><path codeLine="57" d="M281.35,521.2941 C315.22,521.2941 344.95,521.2941 375.87,521.2941 " fill="none" id="articulacao-to-modelos" style="stroke:#000000;stroke-width:1.0;"/><polygon fill="#000000" points="381.87,521.2941,372.87,517.2941,376.87,521.2941,372.87,525.2941,381.87,521.2941" style="stroke:#000000;stroke-width:1.0;"/><text fill="#000000" font-family="Verdana" font-size="13" lengthAdjust="spacing" textLength="65" x="299" y="514.3711">alimenta -&gt;</text></g><!--reverse link mlp to modelos--><g id="link_mlp_modelos"><path codeLine="58" d="M631.1098,378.3351 C600.4998,404.6451 563.89,436.1341 529.77,465.4641 " fill="none" id="mlp-backto-modelos" style="stroke:#000000;stroke-width:1.0;"/><polygon fill="#000000" points="635.66,374.4241,626.2274,377.2571,631.8682,377.6832,631.442,383.324,635.66,374.4241" style="stroke:#000000;stroke-width:1.0;"/><text fill="#000000" font-family="Verdana" font-size="13" lengthAdjust="spacing" textLength="41" x="586" y="427.5711">gera -&gt;</text></g><!--reverse link mpmp to modelos--><g id="link_mpmp_modelos"><path codeLine="59" d="M445.4632,380.3602 C449.3332,406.6702 453.65,436.1341 457.95,465.4641 " fill="none" id="mpmp-backto-modelos" style="stroke:#000000;stroke-width:1.0;"/><polygon fill="#000000" points="444.59,374.4241,441.9423,383.9104,445.3176,379.3708,449.8572,382.7462,444.59,374.4241" style="stroke:#000000;stroke-width:1.0;"/><text fill="#000000" font-family="Verdana" font-size="13" lengthAdjust="spacing" textLength="41" x="453" y="427.5711">gera -&gt;</text></g><!--reverse link validacao to mlp--><g id="link_validacao_mlp"><path codeLine="60" d="M501.4191,191.7274 C542.7691,224.7374 593.13,264.9441 632.07,296.0241 " fill="none" id="validacao-backto-mlp" style="stroke:#000000;stroke-width:1.0;"/><polygon fill="#000000" points="496.73,187.9841,501.2681,196.7251,500.6376,191.1035,506.2592,190.473,496.73,187.9841" style="stroke:#000000;stroke-width:1.0;"/><text fill="#000000" font-family="Verdana" font-size="13" lengthAdjust="spacing" textLength="71" x="553" y="233.1711">valida&#231;&#227;o -&gt;</text></g><!--reverse link validacao to mpmp--><g id="link_validacao_mpmp"><path codeLine="61" d="M439,193.9841 C439,226.9941 439,264.9441 439,296.0241 " fill="none" id="validacao-backto-mpmp" style="stroke:#000000;stroke-width:1.0;"/><polygon fill="#000000" points="439,187.9841,435,196.9841,439,192.9841,443,196.9841,439,187.9841" style="stroke:#000000;stroke-width:1.0;"/><text fill="#000000" font-family="Verdana" font-size="13" lengthAdjust="spacing" textLength="71" x="440" y="233.1711">valida&#231;&#227;o -&gt;</text></g><!--link validacao to banco--><g id="link_validacao_banco"><path codeLine="62" d="M375.53,187.9841 C333.88,218.2141 284.4551,254.0988 242.7251,284.3988 " fill="none" id="validacao-to-banco" style="stroke:#000000;stroke-width:1.0;"/><polygon fill="#000000" points="237.87,287.9241,247.5029,285.8729,241.9159,284.9863,242.8025,279.3994,237.87,287.9241" style="stroke:#000000;stroke-width:1.0;"/><text fill="#000000" font-family="Verdana" font-size="13" lengthAdjust="spacing" textLength="61" x="332" y="233.1711">atualiza -&gt;</text></g><!--SRC=[ZLJDRjD04BxxAPPS2ge2znmgfUcFAgKbD1KdBbDxwgvOxrYpwm15UPYA0u9hrIVmYp6xTXBR3OYSdFs-cVdcrsjlK5rOZpb3_RF-GIf3TG8PENMEPEgdNAVoZUgICZJo9V35D7dbxx50LHhGDaaEr0dUQQkt3cPKb6HHtBgaXFGpvAX6qUj8VK-K_0JJ_blxs0qrKY11ucl3L6eyfnICVcW4JiGxSOOMCd0RHkDc1f97_SGw9pTHIy_Qvdt6LLNKlpZ4cQWJgcuDHdoTh9ETq6EmwQuEGyKBSZvdN7wOlmkVvnVBAFas6cqa7qupdMgomD77wpSJjIATRL5VnOJsepEohZA-Wywrytk4JctzQBJ3lshjDItABDgNRMsNLOcyqYw8pMXOjMdELGc5-1j2XpUCMl9hGmnpk47dzuFhliB5fLemPjhhLTlyeYpAdRu5q-tRaC3xb9ZhtpRLqEjTv62gNPoDNbDxWQ0KttFjTqCzZ6iwOMS6dCEk0RXE7_uHjDkWSwb2TwU6_PcorsbbTfjtHkOUmY2pfvphnxiGDwg3bff2PygQjUDJvxdo5SEm2ml8cEp-GHETwx2wKk0KdOlXFyfKPesQRXAKwg1OEleYWuw578dDG7wo9R4wTQMKI0YDeIInYknU2eq3liOuygt8OoA3OBVhOeCJu6t90sTOz0DrZR6IpzAsQvIH3WT2bS0WV-yCUisAr1MjI9sPwYibpPKPP_J5Ze_Q1Pwe4N013t9UrFXeb3Il6qwt2SB4JTqZjGkEvGRTUx7Ox5lmQtHOf8QyUHzNPM39w0aZHzwBXeNemK9le5r11LzrUX5fmUu_U3lmPItQGnLvVm00]--></g></svg>