<?xml version="1.0" encoding="us-ascii" standalone="no"?><svg xmlns="http://www.w3.org/2000/svg" xmlns:xlink="http://www.w3.org/1999/xlink" contentStyleType="text/css" height="626px" preserveAspectRatio="none" style="width:929px;height:626px;background:#FFFFFF;" version="1.1" viewBox="0 0 929 626" width="929px" zoomAndPan="magnify"><defs/><g><!--cluster Dados--><g id="cluster_Dados"><path d="M670.5,11.294 L715.5,11.294 A3.75,3.75 0 0 1 718,13.794 L725,34.0939 L919.5,34.0939 A2.5,2.5 0 0 1 922,36.5939 L922,173.194 A2.5,2.5 0 0 1 919.5,175.694 L670.5,175.694 A2.5,2.5 0 0 1 668,173.194 L668,13.794 A2.5,2.5 0 0 1 670.5,11.294 " fill="#FFFFFF" style="stroke:#000000;stroke-width:1.0;"/><line style="stroke:#000000;stroke-width:1.0;" x1="668" x2="725" y1="34.0939" y2="34.0939"/><text fill="#000000" font-family="Verdana" font-size="14" font-weight="bold" lengthAdjust="spacing" textLength="44" x="672" y="26.2999">Dados</text></g><!--cluster Banco de Dados--><g id="cluster_Banco de Dados"><path d="M697.5,224.694 L811.5,224.694 A3.75,3.75 0 0 1 814,227.194 L821,247.4939 L892.5,247.4939 A2.5,2.5 0 0 1 895,249.9939 L895,386.594 A2.5,2.5 0 0 1 892.5,389.094 L697.5,389.094 A2.5,2.5 0 0 1 695,386.594 L695,227.194 A2.5,2.5 0 0 1 697.5,224.694 " fill="#FFFFFF" style="stroke:#000000;stroke-width:1.0;"/><line style="stroke:#000000;stroke-width:1.0;" x1="695" x2="821" y1="247.4939" y2="247.4939"/><text fill="#000000" font-family="Verdana" font-size="14" font-weight="bold" lengthAdjust="spacing" textLength="113" x="699" y="239.6999">Banco de Dados</text></g><!--cluster Modelos--><g id="cluster_Modelos"><path d="M272.5,438.094 L332.5,438.094 A3.75,3.75 0 0 1 335,440.594 L342,460.8939 L521.5,460.8939 A2.5,2.5 0 0 1 524,463.3939 L524,616.794 A2.5,2.5 0 0 1 521.5,619.294 L272.5,619.294 A2.5,2.5 0 0 1 270,616.794 L270,440.594 A2.5,2.5 0 0 1 272.5,438.094 " fill="#FFFFFF" style="stroke:#000000;stroke-width:1.0;"/><line style="stroke:#000000;stroke-width:1.0;" x1="270" x2="342" y1="460.8939" y2="460.8939"/><text fill="#000000" font-family="Verdana" font-size="14" font-weight="bold" lengthAdjust="spacing" textLength="59" x="274" y="453.0999">Modelos</text></g><!--cluster Mapeamento--><g id="cluster_Mapeamento"><path d="M13.5,224.694 L102.5,224.694 A3.75,3.75 0 0 1 105,227.194 L112,247.4939 L668.5,247.4939 A2.5,2.5 0 0 1 671,249.9939 L671,386.594 A2.5,2.5 0 0 1 668.5,389.094 L13.5,389.094 A2.5,2.5 0 0 1 11,386.594 L11,227.194 A2.5,2.5 0 0 1 13.5,224.694 " fill="#FFFFFF" style="stroke:#000000;stroke-width:1.0;"/><line style="stroke:#000000;stroke-width:1.0;" x1="11" x2="112" y1="247.4939" y2="247.4939"/><text fill="#000000" font-family="Verdana" font-size="14" font-weight="bold" lengthAdjust="spacing" textLength="88" x="15" y="239.6999">Mapeamento</text></g><!--class dados--><g id="elem_dados"><rect codeLine="6" fill="#FFFFFF" height="94.3998" id="dados" rx="2.5" ry="2.5" style="stroke:#000000;stroke-width:1.0;" width="222" x="684" y="65.294"/><ellipse cx="733.25" cy="79.294" fill="#FFFFFF" rx="9" ry="9" style="stroke:#000000;stroke-width:1.0;"/><path d="M732.1094,80.3565 L733.4219,80.3565 L733.4219,80.4034 C733.4219,80.8096 733.4375,80.9659 733.5469,81.1221 C733.7188,81.3721 734.0156,81.544 734.3281,81.544 C734.6094,81.544 734.9063,81.4034 735.0781,81.1846 C735.2031,80.9971 735.25,80.8565 735.25,80.4034 L735.25,78.5596 C735.25,78.2315 735.2344,78.1221 735.1719,77.9502 C735.0625,77.6534 734.7031,77.4034 734.3281,77.4034 C734.0313,77.4034 733.7656,77.544 733.5938,77.7627 C733.4531,77.9502 733.4219,78.1221 733.4219,78.5596 L733.4219,78.6221 L732.1094,78.6221 L732.1094,76.4502 L735.9531,76.4502 L735.9531,77.2002 C735.9531,77.5909 735.9844,77.7784 736.0938,77.9346 C736.2656,78.1846 736.5625,78.3565 736.875,78.3565 C737.1719,78.3565 737.4375,78.2315 737.625,77.9971 C737.7656,77.8096 737.7969,77.669 737.7969,77.2002 L737.7969,74.7002 L730.0938,74.7002 C729.6406,74.7002 729.5156,74.7159 729.3438,74.8252 C729.0781,74.9971 728.9063,75.2627 728.9063,75.5752 C728.9063,75.8565 729.0313,76.1221 729.2813,76.294 C729.4688,76.419 729.6563,76.4502 730.0938,76.4502 L730.2813,76.4502 L730.2813,82.544 L730.0938,82.544 C729.6719,82.544 729.5156,82.5752 729.3438,82.669 C729.0781,82.8252 728.9063,83.1065 728.9063,83.4034 C728.9063,83.9815 729.3125,84.294 730.0938,84.294 L738.1719,84.294 L738.1719,81.7627 C738.1719,81.3565 738.1406,81.1846 738.0313,81.0284 C737.8594,80.7627 737.5781,80.6065 737.25,80.6065 C736.9688,80.6065 736.6875,80.7471 736.5,80.9659 C736.3594,81.1534 736.3281,81.3096 736.3281,81.7627 L736.3281,82.544 L732.1094,82.544 L732.1094,80.3565 Z " fill="#000000"/><text fill="#000000" font-family="Verdana" font-size="14" lengthAdjust="spacing" textLength="116" x="750.75" y="83.9">Dados Geol&#243;gicos</text><line style="stroke:#000000;stroke-width:1.0;" x1="685" x2="905" y1="93.294" y2="93.294"/><ellipse cx="695" cy="107.1939" fill="none" rx="3" ry="3" style="stroke:#000000;stroke-width:1.0;"/><text fill="#000000" font-family="Verdana" font-size="14" lengthAdjust="spacing" textLength="169" x="702" y="110.2999">Localiza&#231;&#227;o: Coordenadas</text><ellipse cx="695" cy="123.9939" fill="none" rx="3" ry="3" style="stroke:#000000;stroke-width:1.0;"/><text fill="#000000" font-family="Verdana" font-size="14" lengthAdjust="spacing" textLength="138" x="702" y="127.0999">Tipo de Rocha: String</text><ellipse cx="695" cy="140.7938" fill="none" rx="3" ry="3" style="stroke:#000000;stroke-width:1.0;"/><text fill="#000000" font-family="Verdana" font-size="14" lengthAdjust="spacing" textLength="198" x="702" y="143.8998">Dados de Mineraliza&#231;&#227;o: String</text><line style="stroke:#000000;stroke-width:1.0;" x1="685" x2="905" y1="151.6938" y2="151.6938"/></g><!--class banco--><g id="elem_banco"><rect codeLine="14" fill="#FFFFFF" height="94.3998" id="banco" rx="2.5" ry="2.5" style="stroke:#000000;stroke-width:1.0;" width="168" x="711" y="278.694"/><ellipse cx="727.15" cy="292.694" fill="#FFFFFF" rx="9" ry="9" style="stroke:#000000;stroke-width:1.0;"/><path d="M726.0094,293.7565 L727.3219,293.7565 L727.3219,293.8034 C727.3219,294.2096 727.3375,294.3659 727.4469,294.5221 C727.6188,294.7721 727.9156,294.944 728.2281,294.944 C728.5094,294.944 728.8063,294.8034 728.9781,294.5846 C729.1031,294.3971 729.15,294.2565 729.15,293.8034 L729.15,291.9596 C729.15,291.6315 729.1344,291.5221 729.0719,291.3502 C728.9625,291.0534 728.6031,290.8034 728.2281,290.8034 C727.9313,290.8034 727.6656,290.944 727.4938,291.1627 C727.3531,291.3502 727.3219,291.5221 727.3219,291.9596 L727.3219,292.0221 L726.0094,292.0221 L726.0094,289.8502 L729.8531,289.8502 L729.8531,290.6002 C729.8531,290.9909 729.8844,291.1784 729.9938,291.3346 C730.1656,291.5846 730.4625,291.7565 730.775,291.7565 C731.0719,291.7565 731.3375,291.6315 731.525,291.3971 C731.6656,291.2096 731.6969,291.069 731.6969,290.6002 L731.6969,288.1002 L723.9938,288.1002 C723.5406,288.1002 723.4156,288.1159 723.2438,288.2252 C722.9781,288.3971 722.8063,288.6627 722.8063,288.9752 C722.8063,289.2565 722.9313,289.5221 723.1813,289.694 C723.3688,289.819 723.5563,289.8502 723.9938,289.8502 L724.1813,289.8502 L724.1813,295.944 L723.9938,295.944 C723.5719,295.944 723.4156,295.9752 723.2438,296.069 C722.9781,296.2252 722.8063,296.5065 722.8063,296.8034 C722.8063,297.3815 723.2125,297.694 723.9938,297.694 L732.0719,297.694 L732.0719,295.1627 C732.0719,294.7565 732.0406,294.5846 731.9313,294.4284 C731.7594,294.1627 731.4781,294.0065 731.15,294.0065 C730.8688,294.0065 730.5875,294.1471 730.4,294.3659 C730.2594,294.5534 730.2281,294.7096 730.2281,295.1627 L730.2281,295.944 L726.0094,295.944 L726.0094,293.7565 Z " fill="#000000"/><text fill="#000000" font-family="Verdana" font-size="14" lengthAdjust="spacing" textLength="133" x="739.85" y="297.3">PostgreSQL/PostGIS</text><line style="stroke:#000000;stroke-width:1.0;" x1="712" x2="878" y1="306.694" y2="306.694"/><line style="stroke:#000000;stroke-width:1.0;" x1="712" x2="878" y1="314.694" y2="314.694"/><ellipse cx="722" cy="328.5939" fill="#FFFFFF" rx="3" ry="3" style="stroke:#000000;stroke-width:1.0;"/><text fill="#000000" font-family="Verdana" font-size="14" lengthAdjust="spacing" textLength="144" x="729" y="331.6999">AdicionarDados(): void</text><ellipse cx="722" cy="345.3939" fill="#FFFFFF" rx="3" ry="3" style="stroke:#000000;stroke-width:1.0;"/><text fill="#000000" font-family="Verdana" font-size="14" lengthAdjust="spacing" textLength="140" x="729" y="348.4999">AtualizarDados(): void</text><ellipse cx="722" cy="362.1938" fill="#FFFFFF" rx="3" ry="3" style="stroke:#000000;stroke-width:1.0;"/><text fill="#000000" font-family="Verdana" font-size="14" lengthAdjust="spacing" textLength="142" x="729" y="365.2998">ConsultarDados(): List</text></g><!--class modelos--><g id="elem_modelos"><rect codeLine="22" fill="#FFFFFF" height="111.1997" id="modelos" rx="2.5" ry="2.5" style="stroke:#000000;stroke-width:1.0;" width="223" x="285.5" y="492.094"/><ellipse cx="347.75" cy="506.094" fill="#FFFFFF" rx="9" ry="9" style="stroke:#000000;stroke-width:1.0;"/><path d="M346.6094,507.1565 L347.9219,507.1565 L347.9219,507.2034 C347.9219,507.6096 347.9375,507.7659 348.0469,507.9221 C348.2188,508.1721 348.5156,508.344 348.8281,508.344 C349.1094,508.344 349.4063,508.2034 349.5781,507.9846 C349.7031,507.7971 349.75,507.6565 349.75,507.2034 L349.75,505.3596 C349.75,505.0315 349.7344,504.9221 349.6719,504.7502 C349.5625,504.4534 349.2031,504.2034 348.8281,504.2034 C348.5313,504.2034 348.2656,504.344 348.0938,504.5627 C347.9531,504.7502 347.9219,504.9221 347.9219,505.3596 L347.9219,505.4221 L346.6094,505.4221 L346.6094,503.2502 L350.4531,503.2502 L350.4531,504.0002 C350.4531,504.3909 350.4844,504.5784 350.5938,504.7346 C350.7656,504.9846 351.0625,505.1565 351.375,505.1565 C351.6719,505.1565 351.9375,505.0315 352.125,504.7971 C352.2656,504.6096 352.2969,504.469 352.2969,504.0002 L352.2969,501.5002 L344.5938,501.5002 C344.1406,501.5002 344.0156,501.5159 343.8438,501.6252 C343.5781,501.7971 343.4063,502.0627 343.4063,502.3752 C343.4063,502.6565 343.5313,502.9221 343.7813,503.094 C343.9688,503.219 344.1563,503.2502 344.5938,503.2502 L344.7813,503.2502 L344.7813,509.344 L344.5938,509.344 C344.1719,509.344 344.0156,509.3752 343.8438,509.469 C343.5781,509.6252 343.4063,509.9065 343.4063,510.2034 C343.4063,510.7815 343.8125,511.094 344.5938,511.094 L352.6719,511.094 L352.6719,508.5627 C352.6719,508.1565 352.6406,507.9846 352.5313,507.8284 C352.3594,507.5627 352.0781,507.4065 351.75,507.4065 C351.4688,507.4065 351.1875,507.5471 351,507.7659 C350.8594,507.9534 350.8281,508.1096 350.8281,508.5627 L350.8281,509.344 L346.6094,509.344 L346.6094,507.1565 Z " fill="#000000"/><text fill="#000000" font-family="Verdana" font-size="14" lengthAdjust="spacing" textLength="91" x="365.25" y="510.7">Modelos de IA</text><line style="stroke:#000000;stroke-width:1.0;" x1="286.5" x2="507.5" y1="520.094" y2="520.094"/><ellipse cx="296.5" cy="533.9939" fill="none" rx="3" ry="3" style="stroke:#000000;stroke-width:1.0;"/><text fill="#000000" font-family="Verdana" font-size="14" lengthAdjust="spacing" textLength="199" x="303.5" y="537.0999">Modelo de Classifica&#231;&#227;o: String</text><ellipse cx="296.5" cy="550.7939" fill="none" rx="3" ry="3" style="stroke:#000000;stroke-width:1.0;"/><text fill="#000000" font-family="Verdana" font-size="14" lengthAdjust="spacing" textLength="172" x="303.5" y="553.8999">Modelo de Predi&#231;&#227;o: String</text><line style="stroke:#000000;stroke-width:1.0;" x1="286.5" x2="507.5" y1="561.6938" y2="561.6938"/><ellipse cx="296.5" cy="575.5938" fill="#FFFFFF" rx="3" ry="3" style="stroke:#000000;stroke-width:1.0;"/><text fill="#000000" font-family="Verdana" font-size="14" lengthAdjust="spacing" textLength="137" x="303.5" y="578.6998">TreinarModelo(): void</text><ellipse cx="296.5" cy="592.3937" fill="#FFFFFF" rx="3" ry="3" style="stroke:#000000;stroke-width:1.0;"/><text fill="#000000" font-family="Verdana" font-size="14" lengthAdjust="spacing" textLength="82" x="303.5" y="595.4997">Prever(): List</text></g><!--class articulacao--><g id="elem_articulacao"><rect codeLine="31" fill="#FFFFFF" height="94.3998" id="articulacao" rx="2.5" ry="2.5" style="stroke:#000000;stroke-width:1.0;" width="254" x="27" y="278.694"/><ellipse cx="40" cy="292.694" fill="#FFFFFF" rx="9" ry="9" style="stroke:#000000;stroke-width:1.0;"/><path d="M38.8594,293.7565 L40.1719,293.7565 L40.1719,293.8034 C40.1719,294.2096 40.1875,294.3659 40.2969,294.5221 C40.4688,294.7721 40.7656,294.944 41.0781,294.944 C41.3594,294.944 41.6563,294.8034 41.8281,294.5846 C41.9531,294.3971 42,294.2565 42,293.8034 L42,291.9596 C42,291.6315 41.9844,291.5221 41.9219,291.3502 C41.8125,291.0534 41.4531,290.8034 41.0781,290.8034 C40.7813,290.8034 40.5156,290.944 40.3438,291.1627 C40.2031,291.3502 40.1719,291.5221 40.1719,291.9596 L40.1719,292.0221 L38.8594,292.0221 L38.8594,289.8502 L42.7031,289.8502 L42.7031,290.6002 C42.7031,290.9909 42.7344,291.1784 42.8438,291.3346 C43.0156,291.5846 43.3125,291.7565 43.625,291.7565 C43.9219,291.7565 44.1875,291.6315 44.375,291.3971 C44.5156,291.2096 44.5469,291.069 44.5469,290.6002 L44.5469,288.1002 L36.8438,288.1002 C36.3906,288.1002 36.2656,288.1159 36.0938,288.2252 C35.8281,288.3971 35.6563,288.6627 35.6563,288.9752 C35.6563,289.2565 35.7813,289.5221 36.0313,289.694 C36.2188,289.819 36.4063,289.8502 36.8438,289.8502 L37.0313,289.8502 L37.0313,295.944 L36.8438,295.944 C36.4219,295.944 36.2656,295.9752 36.0938,296.069 C35.8281,296.2252 35.6563,296.5065 35.6563,296.8034 C35.6563,297.3815 36.0625,297.694 36.8438,297.694 L44.9219,297.694 L44.9219,295.1627 C44.9219,294.7565 44.8906,294.5846 44.7813,294.4284 C44.6094,294.1627 44.3281,294.0065 44,294.0065 C43.7188,294.0065 43.4375,294.1471 43.25,294.3659 C43.1094,294.5534 43.0781,294.7096 43.0781,295.1627 L43.0781,295.944 L38.8594,295.944 L38.8594,293.7565 Z " fill="#000000"/><text fill="#000000" font-family="Verdana" font-size="14" lengthAdjust="spacing" textLength="226" x="52" y="297.3">Articula&#231;&#227;o de Folhas Cartogr&#225;ficas</text><line style="stroke:#000000;stroke-width:1.0;" x1="28" x2="280" y1="306.694" y2="306.694"/><line style="stroke:#000000;stroke-width:1.0;" x1="28" x2="280" y1="314.694" y2="314.694"/><ellipse cx="38" cy="328.5939" fill="#FFFFFF" rx="3" ry="3" style="stroke:#000000;stroke-width:1.0;"/><text fill="#000000" font-family="Verdana" font-size="14" lengthAdjust="spacing" textLength="175" x="45" y="331.6999">DefinirEstruturaBase(): void</text><ellipse cx="38" cy="345.3939" fill="#FFFFFF" rx="3" ry="3" style="stroke:#000000;stroke-width:1.0;"/><text fill="#000000" font-family="Verdana" font-size="14" lengthAdjust="spacing" textLength="225" x="45" y="348.4999">OrganizarDadosGeogr&#225;ficos(): void</text><ellipse cx="38" cy="362.1938" fill="#FFFFFF" rx="3" ry="3" style="stroke:#000000;stroke-width:1.0;"/><text fill="#000000" font-family="Verdana" font-size="14" lengthAdjust="spacing" textLength="209" x="45" y="365.2998">PadronizarInser&#231;&#227;oDados(): void</text></g><!--class mapas--><g id="elem_mapas"><rect codeLine="37" fill="#FFFFFF" height="93.1997" id="mapas" rx="2.5" ry="2.5" style="stroke:#000000;stroke-width:1.0;" width="226" x="429" y="279.294"/><ellipse cx="481.25" cy="301.0939" fill="#FFFFFF" rx="9" ry="9" style="stroke:#000000;stroke-width:1.0;"/><path d="M480.1094,302.1564 L481.4219,302.1564 L481.4219,302.2033 C481.4219,302.6095 481.4375,302.7658 481.5469,302.922 C481.7188,303.172 482.0156,303.3439 482.3281,303.3439 C482.6094,303.3439 482.9063,303.2033 483.0781,302.9845 C483.2031,302.797 483.25,302.6564 483.25,302.2033 L483.25,300.3595 C483.25,300.0314 483.2344,299.922 483.1719,299.7502 C483.0625,299.4533 482.7031,299.2033 482.3281,299.2033 C482.0313,299.2033 481.7656,299.3439 481.5938,299.5627 C481.4531,299.7502 481.4219,299.922 481.4219,300.3595 L481.4219,300.422 L480.1094,300.422 L480.1094,298.2502 L483.9531,298.2502 L483.9531,299.0002 C483.9531,299.3908 483.9844,299.5783 484.0938,299.7345 C484.2656,299.9845 484.5625,300.1564 484.875,300.1564 C485.1719,300.1564 485.4375,300.0314 485.625,299.797 C485.7656,299.6095 485.7969,299.4689 485.7969,299.0002 L485.7969,296.5002 L478.0938,296.5002 C477.6406,296.5002 477.5156,296.5158 477.3438,296.6252 C477.0781,296.797 476.9063,297.0627 476.9063,297.3752 C476.9063,297.6564 477.0313,297.922 477.2813,298.0939 C477.4688,298.2189 477.6563,298.2502 478.0938,298.2502 L478.2813,298.2502 L478.2813,304.3439 L478.0938,304.3439 C477.6719,304.3439 477.5156,304.3752 477.3438,304.4689 C477.0781,304.6252 476.9063,304.9064 476.9063,305.2033 C476.9063,305.7814 477.3125,306.0939 478.0938,306.0939 L486.1719,306.0939 L486.1719,303.5627 C486.1719,303.1564 486.1406,302.9845 486.0313,302.8283 C485.8594,302.5627 485.5781,302.4064 485.25,302.4064 C484.9688,302.4064 484.6875,302.547 484.5,302.7658 C484.3594,302.9533 484.3281,303.1095 484.3281,303.5627 L484.3281,304.3439 L480.1094,304.3439 L480.1094,302.1564 Z " fill="#000000"/><text fill="#000000" font-family="Verdana" font-size="14" lengthAdjust="spacing" textLength="114" x="498.75" y="297.2999">Mapas Litol&#243;gicos</text><text fill="#000000" font-family="Verdana" font-size="14" lengthAdjust="spacing" textLength="62" x="524.75" y="314.0999">Preditivos</text><line style="stroke:#000000;stroke-width:1.0;" x1="430" x2="654" y1="322.8938" y2="322.8938"/><ellipse cx="440" cy="336.7938" fill="none" rx="3" ry="3" style="stroke:#000000;stroke-width:1.0;"/><text fill="#000000" font-family="Verdana" font-size="14" lengthAdjust="spacing" textLength="200" x="447" y="339.8998">&#193;reas de Potencial Mineral: List</text><ellipse cx="440" cy="353.5937" fill="none" rx="3" ry="3" style="stroke:#000000;stroke-width:1.0;"/><text fill="#000000" font-family="Verdana" font-size="14" lengthAdjust="spacing" textLength="202" x="447" y="356.6997">Precis&#227;o das Predi&#231;&#245;es: Double</text><line style="stroke:#000000;stroke-width:1.0;" x1="430" x2="654" y1="364.4937" y2="364.4937"/></g><!--class validacao--><g id="elem_validacao"><rect codeLine="44" fill="#FFFFFF" height="93.1997" id="validacao" rx="2.5" ry="2.5" style="stroke:#000000;stroke-width:1.0;" width="209" x="569.5" y="501.094"/><ellipse cx="608.25" cy="522.8939" fill="#FFFFFF" rx="9" ry="9" style="stroke:#000000;stroke-width:1.0;"/><path d="M607.1094,523.9564 L608.4219,523.9564 L608.4219,524.0033 C608.4219,524.4095 608.4375,524.5658 608.5469,524.722 C608.7188,524.972 609.0156,525.1439 609.3281,525.1439 C609.6094,525.1439 609.9063,525.0033 610.0781,524.7845 C610.2031,524.597 610.25,524.4564 610.25,524.0033 L610.25,522.1595 C610.25,521.8314 610.2344,521.722 610.1719,521.5502 C610.0625,521.2533 609.7031,521.0033 609.3281,521.0033 C609.0313,521.0033 608.7656,521.1439 608.5938,521.3627 C608.4531,521.5502 608.4219,521.722 608.4219,522.1595 L608.4219,522.222 L607.1094,522.222 L607.1094,520.0502 L610.9531,520.0502 L610.9531,520.8002 C610.9531,521.1908 610.9844,521.3783 611.0938,521.5345 C611.2656,521.7845 611.5625,521.9564 611.875,521.9564 C612.1719,521.9564 612.4375,521.8314 612.625,521.597 C612.7656,521.4095 612.7969,521.2689 612.7969,520.8002 L612.7969,518.3002 L605.0938,518.3002 C604.6406,518.3002 604.5156,518.3158 604.3438,518.4252 C604.0781,518.597 603.9063,518.8627 603.9063,519.1752 C603.9063,519.4564 604.0313,519.722 604.2813,519.8939 C604.4688,520.0189 604.6563,520.0502 605.0938,520.0502 L605.2813,520.0502 L605.2813,526.1439 L605.0938,526.1439 C604.6719,526.1439 604.5156,526.1752 604.3438,526.2689 C604.0781,526.4252 603.9063,526.7064 603.9063,527.0033 C603.9063,527.5814 604.3125,527.8939 605.0938,527.8939 L613.1719,527.8939 L613.1719,525.3627 C613.1719,524.9564 613.1406,524.7845 613.0313,524.6283 C612.8594,524.3627 612.5781,524.2064 612.25,524.2064 C611.9688,524.2064 611.6875,524.347 611.5,524.5658 C611.3594,524.7533 611.3281,524.9095 611.3281,525.3627 L611.3281,526.1439 L607.1094,526.1439 L607.1094,523.9564 Z " fill="#000000"/><text fill="#000000" font-family="Verdana" font-size="14" lengthAdjust="spacing" textLength="124" x="625.75" y="519.0999">Valida&#231;&#227;o e An&#225;lise</text><text fill="#000000" font-family="Verdana" font-size="14" lengthAdjust="spacing" textLength="107" x="634.25" y="535.8999">por Especialistas</text><line style="stroke:#000000;stroke-width:1.0;" x1="570.5" x2="777.5" y1="544.6938" y2="544.6938"/><line style="stroke:#000000;stroke-width:1.0;" x1="570.5" x2="777.5" y1="552.6938" y2="552.6938"/><ellipse cx="580.5" cy="566.5938" fill="#FFFFFF" rx="3" ry="3" style="stroke:#000000;stroke-width:1.0;"/><text fill="#000000" font-family="Verdana" font-size="14" lengthAdjust="spacing" textLength="185" x="587.5" y="569.6998">ValidarResultados(): Boolean</text><ellipse cx="580.5" cy="583.3937" fill="#FFFFFF" rx="3" ry="3" style="stroke:#000000;stroke-width:1.0;"/><text fill="#000000" font-family="Verdana" font-size="14" lengthAdjust="spacing" textLength="169" x="587.5" y="586.4997">AnalisarPrecis&#227;o(): Double</text></g><!--link dados to banco--><g id="link_dados_banco"><path codeLine="50" d="M795,160.144 C795,195.284 795,237.244 795,272.364 " fill="none" id="dados-to-banco" style="stroke:#000000;stroke-width:1.0;"/><polygon fill="#000000" points="795,278.364,799,269.364,795,273.364,791,269.364,795,278.364" style="stroke:#000000;stroke-width:1.0;"/><text fill="#000000" font-family="Verdana" font-size="13" lengthAdjust="spacing" textLength="73" x="796" y="204.771">armazena -&gt;</text></g><!--link banco to articulacao--><g id="link_banco_articulacao"><path codeLine="51" d="M755.09,278.334 C732.95,255.704 703.37,231.004 671,218.974 C526.02,165.104 352.9534,226.1474 248.1234,275.7574 " fill="none" id="banco-to-articulacao" style="stroke:#000000;stroke-width:1.0;"/><polygon fill="#000000" points="242.7,278.324,252.5461,278.0897,247.2195,276.1852,249.124,270.8586,242.7,278.324" style="stroke:#000000;stroke-width:1.0;"/><text fill="#000000" font-family="Verdana" font-size="13" lengthAdjust="spacing" textLength="67" x="462.5" y="204.771">estrutura -&gt;</text></g><!--link articulacao to modelos--><g id="link_articulacao_modelos"><path codeLine="52" d="M205.53,373.504 C243.71,408.034 291.4109,451.1784 331.6409,487.5784 " fill="none" id="articulacao-to-modelos" style="stroke:#000000;stroke-width:1.0;"/><polygon fill="#000000" points="336.09,491.604,332.1,482.5995,332.3824,488.2493,326.7326,488.5317,336.09,491.604" style="stroke:#000000;stroke-width:1.0;"/><text fill="#000000" font-family="Verdana" font-size="13" lengthAdjust="spacing" textLength="65" x="255" y="418.171">alimenta -&gt;</text></g><!--link modelos to mapas--><g id="link_modelos_mapas"><path codeLine="53" d="M433.25,491.734 C457.4,455.134 485.4669,412.6029 508.2969,377.9829 " fill="none" id="modelos-to-mapas" style="stroke:#000000;stroke-width:1.0;"/><polygon fill="#000000" points="511.6,372.974,503.306,378.2853,508.8474,377.1481,509.9846,382.6895,511.6,372.974" style="stroke:#000000;stroke-width:1.0;"/><text fill="#000000" font-family="Verdana" font-size="13" lengthAdjust="spacing" textLength="41" x="487" y="418.171">gera -&gt;</text></g><!--link mapas to validacao--><g id="link_mapas_validacao"><path codeLine="54" d="M569.67,372.974 C592.2,410.484 620.7614,458.04 643.2714,495.53 " fill="none" id="mapas-to-validacao" style="stroke:#000000;stroke-width:1.0;"/><polygon fill="#000000" points="646.36,500.674,645.1564,490.8989,643.7862,496.3873,638.2978,495.0171,646.36,500.674" style="stroke:#000000;stroke-width:1.0;"/><text fill="#000000" font-family="Verdana" font-size="13" lengthAdjust="spacing" textLength="71" x="597" y="418.171">valida&#231;&#227;o -&gt;</text></g><!--link validacao to banco--><g id="link_validacao_banco"><path codeLine="55" d="M699.21,500.904 C719.76,463.564 745.7772,416.3206 766.4472,378.7606 " fill="none" id="validacao-to-banco" style="stroke:#000000;stroke-width:1.0;"/><polygon fill="#000000" points="769.34,373.504,761.4964,379.4603,766.9293,377.8845,768.5052,383.3174,769.34,373.504" style="stroke:#000000;stroke-width:1.0;"/><text fill="#000000" font-family="Verdana" font-size="13" lengthAdjust="spacing" textLength="61" x="749" y="418.171">atualiza -&gt;</text></g><!--link articulacao to mapas--><g id="link_articulacao_mapas"><path codeLine="56" d="M281.31,325.894 C328.82,325.894 376.39,325.894 422.56,325.894 " fill="none" id="articulacao-to-mapas" style="stroke:#000000;stroke-width:1.0;"/><polygon fill="#000000" points="428.56,325.894,419.56,321.894,423.56,325.894,419.56,329.894,428.56,325.894" style="stroke:#000000;stroke-width:1.0;"/><text fill="#000000" font-family="Verdana" font-size="13" lengthAdjust="spacing" textLength="111" x="299.5" y="318.971">facilita produ&#231;&#227;o -&gt;</text></g><!--SRC=[VLH1Rjim4Bph5QmlQH4OlViGm8cJ883JkdRGKouRSIqlIdE59QMsANBeKu8U-e2YB_37If6IhCH6VP9tXilPsP7U-0rkKPK6o6RPYPhXcYpjVkz-iTAeBdXRiaNhqMKbv5-WG3MQWMOtKZyo5Nu18_-zBQfhPBFxKr3U4C0f7Qk9gTJfd7Cmz0Yn_oHqPz5eGOFh67TKnekNd6zWebPUo1OTcEu8w2rPb66d0UyfUyhsMi_1vh7XKT4BThuGN7sQlsyUhszMKVL3FDIhdchAYIr8xF7stKJLJBf7VHML74SlsBhA-04w9-UF2BrbZUPGOLjk9hYPHd7RjjBBIvIuBGFEqPho8xQy82u4DHtbt0bIc3HHNmyJZjKe_ni2IeHjqCwlvvYAfxmoq2VhYiqcJ7C1uhcGtNEZEcK6MceEWnsaNCgbyrBvIk0S7BwMzr4AiFqcGXJRleTRMO0MZjGRwr2YgCFrXSbUh0BAe6vEle_ulOr6UghRk6yZfHUz-oa8SNSBzcXp0jD5Ts1XCZOd5vq9_6uxVz5Dr8oh1uDxhqy2p3aw5rty7AAdawbPftDGKwYcTlTioE6zBLdKfIknaH7kRjsk8xlp-ZGTbYN6rBQEd3CR1DlWKziS1kaLDtYhCQfRObnoq1uUwq1j9Yf18FnT6_GaYjK7hbbTcUeRP-aBCTRyrOxFsZTleaOWMtWCdmOrFXjbgJeMAZO-a8O12LJiCX6vGx3hshqoJLz3JJuJjwltlBY-m2gmxPOg7RxtAd3gWSqDTGyU3jD-8Wu5TYFrDwyX9qD1NocigtttVm00]--></g></svg>