<?xml version="1.0" encoding="us-ascii" standalone="no"?><svg xmlns="http://www.w3.org/2000/svg" xmlns:xlink="http://www.w3.org/1999/xlink" contentStyleType="text/css" height="869px" preserveAspectRatio="none" style="width:774px;height:869px;background:#FFFFFF;" version="1.1" viewBox="0 0 774 869" width="774px" zoomAndPan="magnify"><defs/><g><!--cluster User Interface--><g id="cluster_User Interface"><path d="M8.5,6.294 L104.5,6.294 A3.75,3.75 0 0 1 107,8.794 L114,29.0939 L558.5,29.0939 A2.5,2.5 0 0 1 561,31.5939 L561,395.794 A2.5,2.5 0 0 1 558.5,398.294 L8.5,398.294 A2.5,2.5 0 0 1 6,395.794 L6,8.794 A2.5,2.5 0 0 1 8.5,6.294 " fill="none" style="stroke:#000000;stroke-width:1.5;"/><line style="stroke:#000000;stroke-width:1.5;" x1="6" x2="114" y1="29.0939" y2="29.0939"/><text fill="#000000" font-family="sans-serif" font-size="14" font-weight="bold" lengthAdjust="spacing" textLength="95" x="10" y="21.2999">User Interface</text></g><!--cluster Data Manipulation--><g id="cluster_Data Manipulation"><path d="M308.5,679.294 L434.5,679.294 A3.75,3.75 0 0 1 437,681.794 L444,702.0939 L691.5,702.0939 A2.5,2.5 0 0 1 694,704.5939 L694,859.794 A2.5,2.5 0 0 1 691.5,862.294 L308.5,862.294 A2.5,2.5 0 0 1 306,859.794 L306,681.794 A2.5,2.5 0 0 1 308.5,679.294 " fill="none" style="stroke:#000000;stroke-width:1.5;"/><line style="stroke:#000000;stroke-width:1.5;" x1="306" x2="444" y1="702.0939" y2="702.0939"/><text fill="#000000" font-family="sans-serif" font-size="14" font-weight="bold" lengthAdjust="spacing" textLength="125" x="310" y="694.2999">Data Manipulation</text></g><!--cluster Plotting and Events--><g id="cluster_Plotting and Events"><path d="M457.5,447.294 L593.5,447.294 A3.75,3.75 0 0 1 596,449.794 L603,470.0939 L764.5,470.0939 A2.5,2.5 0 0 1 767,472.5939 L767,627.794 A2.5,2.5 0 0 1 764.5,630.294 L457.5,630.294 A2.5,2.5 0 0 1 455,627.794 L455,449.794 A2.5,2.5 0 0 1 457.5,447.294 " fill="none" style="stroke:#000000;stroke-width:1.5;"/><line style="stroke:#000000;stroke-width:1.5;" x1="455" x2="603" y1="470.0939" y2="470.0939"/><text fill="#000000" font-family="sans-serif" font-size="14" font-weight="bold" lengthAdjust="spacing" textLength="135" x="459" y="462.2999">Plotting and Events</text></g><!--cluster Selection and Configuration--><g id="cluster_Selection and Configuration"><path d="M78.5,455.694 L272.5,455.694 A3.75,3.75 0 0 1 275,458.194 L282,478.4939 L349.5,478.4939 A2.5,2.5 0 0 1 352,480.9939 L352,619.394 A2.5,2.5 0 0 1 349.5,621.894 L78.5,621.894 A2.5,2.5 0 0 1 76,619.394 L76,458.194 A2.5,2.5 0 0 1 78.5,455.694 " fill="none" style="stroke:#000000;stroke-width:1.5;"/><line style="stroke:#000000;stroke-width:1.5;" x1="76" x2="282" y1="478.4939" y2="478.4939"/><text fill="#000000" font-family="sans-serif" font-size="14" font-weight="bold" lengthAdjust="spacing" textLength="193" x="80" y="470.6999">Selection and Configuration</text></g><!--class PreditorTerraUI--><g id="elem_PreditorTerraUI"><rect codeLine="3" fill="#F1F1F1" height="115.1997" id="PreditorTerraUI" rx="2.5" ry="2.5" style="stroke:#181818;stroke-width:0.5;" width="207" x="128.5" y="41.294"/><ellipse cx="178.25" cy="57.294" fill="#ADD1B2" rx="11" ry="11" style="stroke:#181818;stroke-width:1.0;"/><path d="M173.25,58.4502 C173.25,60.9502 175.3906,62.7627 178.3125,62.7627 C179.5469,62.7627 180.7188,62.4659 181.4688,61.9502 C182.0781,61.5284 182.4063,61.1065 182.4063,60.7002 C182.4063,60.2315 181.9844,59.8252 181.4844,59.8252 C181.25,59.8252 181.0313,59.9034 180.8281,60.1065 C180.3906,60.544 180.3906,60.544 180.2188,60.6377 C179.7656,60.8721 179.125,61.0127 178.3594,61.0127 C176.3594,61.0127 175.0781,59.9971 175.0781,58.419 L175.0781,57.3721 C175.0781,55.669 176.2969,54.4659 178,54.4659 C178.5781,54.4659 179.1563,54.6065 179.625,54.8565 C180.0938,55.1221 180.2656,55.3096 180.3281,55.669 C180.4531,56.3409 180.7031,56.5909 181.2344,56.5909 C181.5156,56.5909 181.7969,56.4502 181.9844,56.2315 C182.1094,56.0596 182.1563,55.8877 182.1563,55.4502 L182.1563,54.0909 C182.1563,53.669 182.1406,53.5284 182.0156,53.3565 C181.8438,53.1065 181.5625,52.9502 181.2344,52.9502 C180.9219,52.9502 180.7188,53.0596 180.5,53.3252 C179.3281,52.8252 178.8906,52.7159 177.9375,52.7159 C175.2656,52.7159 173.25,54.7315 173.25,57.3565 L173.25,58.4502 Z " fill="#000000"/><text fill="#000000" font-family="sans-serif" font-size="14" lengthAdjust="spacing" textLength="99" x="198.75" y="61.9">PreditorTerraUI</text><line style="stroke:#181818;stroke-width:0.5;" x1="129.5" x2="334.5" y1="73.294" y2="73.294"/><rect fill="none" height="6" style="stroke:#C82930;stroke-width:1.0;" width="6" x="136.5" y="84.1939"/><text fill="#000000" font-family="sans-serif" font-size="14" lengthAdjust="spacing" textLength="68" x="148.5" y="90.2999">root : tk.Tk</text><rect fill="none" height="6" style="stroke:#C82930;stroke-width:1.0;" width="6" x="136.5" y="100.9939"/><text fill="#000000" font-family="sans-serif" font-size="14" lengthAdjust="spacing" textLength="181" x="148.5" y="107.0999">frameSeletor : FrameSeletor</text><rect fill="none" height="6" style="stroke:#C82930;stroke-width:1.0;" width="6" x="136.5" y="117.7938"/><text fill="#000000" font-family="sans-serif" font-size="14" lengthAdjust="spacing" textLength="139" x="148.5" y="123.8998">framePlot : FramePlot</text><line style="stroke:#181818;stroke-width:0.5;" x1="129.5" x2="334.5" y1="131.6938" y2="131.6938"/><rect fill="#F24D5C" height="6" style="stroke:#C82930;stroke-width:1.0;" width="6" x="136.5" y="142.5937"/><text fill="#000000" font-family="sans-serif" font-size="14" lengthAdjust="spacing" textLength="102" x="148.5" y="148.6997">setup_ui() : void</text></g><!--class FrameSeletor--><g id="elem_FrameSeletor"><rect codeLine="10" fill="#F1F1F1" height="148.7996" id="FrameSeletor" rx="2.5" ry="2.5" style="stroke:#181818;stroke-width:0.5;" width="244" x="22" y="233.494"/><ellipse cx="96.25" cy="249.494" fill="#ADD1B2" rx="11" ry="11" style="stroke:#181818;stroke-width:1.0;"/><path d="M91.25,250.6502 C91.25,253.1502 93.3906,254.9627 96.3125,254.9627 C97.5469,254.9627 98.7188,254.6659 99.4688,254.1502 C100.0781,253.7284 100.4063,253.3065 100.4063,252.9002 C100.4063,252.4315 99.9844,252.0252 99.4844,252.0252 C99.25,252.0252 99.0313,252.1034 98.8281,252.3065 C98.3906,252.744 98.3906,252.744 98.2188,252.8377 C97.7656,253.0721 97.125,253.2127 96.3594,253.2127 C94.3594,253.2127 93.0781,252.1971 93.0781,250.619 L93.0781,249.5721 C93.0781,247.869 94.2969,246.6659 96,246.6659 C96.5781,246.6659 97.1563,246.8065 97.625,247.0565 C98.0938,247.3221 98.2656,247.5096 98.3281,247.869 C98.4531,248.5409 98.7031,248.7909 99.2344,248.7909 C99.5156,248.7909 99.7969,248.6502 99.9844,248.4315 C100.1094,248.2596 100.1563,248.0877 100.1563,247.6502 L100.1563,246.2909 C100.1563,245.869 100.1406,245.7284 100.0156,245.5565 C99.8438,245.3065 99.5625,245.1502 99.2344,245.1502 C98.9219,245.1502 98.7188,245.2596 98.5,245.5252 C97.3281,245.0252 96.8906,244.9159 95.9375,244.9159 C93.2656,244.9159 91.25,246.9315 91.25,249.5565 L91.25,250.6502 Z " fill="#000000"/><text fill="#000000" font-family="sans-serif" font-size="14" lengthAdjust="spacing" textLength="87" x="116.75" y="254.1">FrameSeletor</text><line style="stroke:#181818;stroke-width:0.5;" x1="23" x2="265" y1="265.494" y2="265.494"/><rect fill="none" height="6" style="stroke:#C82930;stroke-width:1.0;" width="6" x="30" y="276.3939"/><text fill="#000000" font-family="sans-serif" font-size="14" lengthAdjust="spacing" textLength="142" x="42" y="282.4999">mainFrame: ttk.Frame</text><rect fill="none" height="6" style="stroke:#C82930;stroke-width:1.0;" width="6" x="30" y="293.1939"/><text fill="#000000" font-family="sans-serif" font-size="14" lengthAdjust="spacing" textLength="218" x="42" y="299.2999">dicionarioFolhas: DicionarioFolhas</text><rect fill="none" height="6" style="stroke:#C82930;stroke-width:1.0;" width="6" x="30" y="309.9938"/><text fill="#000000" font-family="sans-serif" font-size="14" lengthAdjust="spacing" textLength="182" x="42" y="316.0998">seletorFolhas: SeletorFolhas</text><rect fill="none" height="6" style="stroke:#C82930;stroke-width:1.0;" width="6" x="30" y="326.7937"/><text fill="#000000" font-family="sans-serif" font-size="14" lengthAdjust="spacing" textLength="99" x="42" y="332.8997">folhaEstudo: str</text><line style="stroke:#181818;stroke-width:0.5;" x1="23" x2="265" y1="340.6937" y2="340.6937"/><rect fill="#F24D5C" height="6" style="stroke:#C82930;stroke-width:1.0;" width="6" x="30" y="351.5937"/><text fill="#000000" font-family="sans-serif" font-size="14" lengthAdjust="spacing" textLength="124" x="42" y="357.6996">setupSeletor(): void</text><rect fill="#F24D5C" height="6" style="stroke:#C82930;stroke-width:1.0;" width="6" x="30" y="368.3936"/><text fill="#000000" font-family="sans-serif" font-size="14" lengthAdjust="spacing" textLength="213" x="42" y="374.4996">atualizarLabelFolhaEstudo(): void</text></g><!--class FramePlot--><g id="elem_FramePlot"><rect codeLine="19" fill="#F1F1F1" height="131.9996" id="FramePlot" rx="2.5" ry="2.5" style="stroke:#181818;stroke-width:0.5;" width="244" x="301" y="241.894"/><ellipse cx="385.75" cy="257.894" fill="#ADD1B2" rx="11" ry="11" style="stroke:#181818;stroke-width:1.0;"/><path d="M380.75,259.0502 C380.75,261.5502 382.8906,263.3627 385.8125,263.3627 C387.0469,263.3627 388.2188,263.0659 388.9688,262.5502 C389.5781,262.1284 389.9063,261.7065 389.9063,261.3002 C389.9063,260.8315 389.4844,260.4252 388.9844,260.4252 C388.75,260.4252 388.5313,260.5034 388.3281,260.7065 C387.8906,261.144 387.8906,261.144 387.7188,261.2377 C387.2656,261.4721 386.625,261.6127 385.8594,261.6127 C383.8594,261.6127 382.5781,260.5971 382.5781,259.019 L382.5781,257.9721 C382.5781,256.269 383.7969,255.0659 385.5,255.0659 C386.0781,255.0659 386.6563,255.2065 387.125,255.4565 C387.5938,255.7221 387.7656,255.9096 387.8281,256.269 C387.9531,256.9409 388.2031,257.1909 388.7344,257.1909 C389.0156,257.1909 389.2969,257.0502 389.4844,256.8315 C389.6094,256.6596 389.6563,256.4877 389.6563,256.0502 L389.6563,254.6909 C389.6563,254.269 389.6406,254.1284 389.5156,253.9565 C389.3438,253.7065 389.0625,253.5502 388.7344,253.5502 C388.4219,253.5502 388.2188,253.6596 388,253.9252 C386.8281,253.4252 386.3906,253.3159 385.4375,253.3159 C382.7656,253.3159 380.75,255.3315 380.75,257.9565 L380.75,259.0502 Z " fill="#000000"/><text fill="#000000" font-family="sans-serif" font-size="14" lengthAdjust="spacing" textLength="66" x="406.25" y="262.5">FramePlot</text><line style="stroke:#181818;stroke-width:0.5;" x1="302" x2="544" y1="273.894" y2="273.894"/><rect fill="none" height="6" style="stroke:#C82930;stroke-width:1.0;" width="6" x="309" y="284.7939"/><text fill="#000000" font-family="sans-serif" font-size="14" lengthAdjust="spacing" textLength="142" x="321" y="290.8999">mainFrame: ttk.Frame</text><rect fill="none" height="6" style="stroke:#C82930;stroke-width:1.0;" width="6" x="309" y="301.5939"/><text fill="#000000" font-family="sans-serif" font-size="14" lengthAdjust="spacing" textLength="141" x="321" y="307.6999">plotFolhas: PlotFolhas</text><rect fill="none" height="6" style="stroke:#C82930;stroke-width:1.0;" width="6" x="309" y="318.3938"/><text fill="#000000" font-family="sans-serif" font-size="14" lengthAdjust="spacing" textLength="218" x="321" y="324.4998">dicionarioFolhas: DicionarioFolhas</text><rect fill="none" height="6" style="stroke:#C82930;stroke-width:1.0;" width="6" x="309" y="335.1937"/><text fill="#000000" font-family="sans-serif" font-size="14" lengthAdjust="spacing" textLength="182" x="321" y="341.2997">seletorFolhas: SeletorFolhas</text><line style="stroke:#181818;stroke-width:0.5;" x1="302" x2="544" y1="349.0937" y2="349.0937"/><rect fill="#F24D5C" height="6" style="stroke:#C82930;stroke-width:1.0;" width="6" x="309" y="359.9937"/><text fill="#000000" font-family="sans-serif" font-size="14" lengthAdjust="spacing" textLength="109" x="321" y="366.0996">plotFrame(): void</text></g><!--class DicionarioFolhas--><g id="elem_DicionarioFolhas"><rect codeLine="29" fill="#F1F1F1" height="131.9996" id="DicionarioFolhas" rx="2.5" ry="2.5" style="stroke:#181818;stroke-width:0.5;" width="168" x="322" y="714.294"/><ellipse cx="350.5" cy="730.294" fill="#ADD1B2" rx="11" ry="11" style="stroke:#181818;stroke-width:1.0;"/><path d="M345.5,731.4502 C345.5,733.9502 347.6406,735.7627 350.5625,735.7627 C351.7969,735.7627 352.9688,735.4659 353.7188,734.9502 C354.3281,734.5284 354.6563,734.1065 354.6563,733.7002 C354.6563,733.2315 354.2344,732.8252 353.7344,732.8252 C353.5,732.8252 353.2813,732.9034 353.0781,733.1065 C352.6406,733.544 352.6406,733.544 352.4688,733.6377 C352.0156,733.8721 351.375,734.0127 350.6094,734.0127 C348.6094,734.0127 347.3281,732.9971 347.3281,731.419 L347.3281,730.3721 C347.3281,728.669 348.5469,727.4659 350.25,727.4659 C350.8281,727.4659 351.4063,727.6065 351.875,727.8565 C352.3438,728.1221 352.5156,728.3096 352.5781,728.669 C352.7031,729.3409 352.9531,729.5909 353.4844,729.5909 C353.7656,729.5909 354.0469,729.4502 354.2344,729.2315 C354.3594,729.0596 354.4063,728.8877 354.4063,728.4502 L354.4063,727.0909 C354.4063,726.669 354.3906,726.5284 354.2656,726.3565 C354.0938,726.1065 353.8125,725.9502 353.4844,725.9502 C353.1719,725.9502 352.9688,726.0596 352.75,726.3252 C351.5781,725.8252 351.1406,725.7159 350.1875,725.7159 C347.5156,725.7159 345.5,727.7315 345.5,730.3565 L345.5,731.4502 Z " fill="#000000"/><text fill="#000000" font-family="sans-serif" font-size="14" lengthAdjust="spacing" textLength="106" x="367.5" y="734.9">DicionarioFolhas</text><line style="stroke:#181818;stroke-width:0.5;" x1="323" x2="489" y1="746.294" y2="746.294"/><rect fill="none" height="6" style="stroke:#C82930;stroke-width:1.0;" width="6" x="330" y="757.1939"/><text fill="#000000" font-family="sans-serif" font-size="14" lengthAdjust="spacing" textLength="42" x="342" y="763.2999">file: str</text><rect fill="none" height="6" style="stroke:#C82930;stroke-width:1.0;" width="6" x="330" y="773.9939"/><text fill="#000000" font-family="sans-serif" font-size="14" lengthAdjust="spacing" textLength="142" x="342" y="780.0999">carta_1kk: DataFrame</text><rect fill="none" height="6" style="stroke:#C82930;stroke-width:1.0;" width="6" x="330" y="790.7938"/><text fill="#000000" font-family="sans-serif" font-size="14" lengthAdjust="spacing" textLength="102" x="342" y="796.8998">bbox: Geometry</text><line style="stroke:#181818;stroke-width:0.5;" x1="323" x2="489" y1="804.6938" y2="804.6938"/><ellipse cx="333" cy="818.5937" fill="#84BE84" rx="3" ry="3" style="stroke:#038048;stroke-width:1.0;"/><text fill="#000000" font-family="sans-serif" font-size="14" lengthAdjust="spacing" textLength="138" x="342" y="821.6997">gera_dicionario(): dict</text><ellipse cx="333" cy="835.3937" fill="#84BE84" rx="3" ry="3" style="stroke:#038048;stroke-width:1.0;"/><text fill="#000000" font-family="sans-serif" font-size="14" lengthAdjust="spacing" textLength="86" x="342" y="838.4996">filtrarID(): dict</text></g><!--class ManipulaFolhas--><g id="elem_ManipulaFolhas"><rect codeLine="37" fill="#F1F1F1" height="64.7999" id="ManipulaFolhas" rx="2.5" ry="2.5" style="stroke:#181818;stroke-width:0.5;" width="153" x="524.5" y="747.894"/><ellipse cx="548.5" cy="763.894" fill="#ADD1B2" rx="11" ry="11" style="stroke:#181818;stroke-width:1.0;"/><path d="M543.5,765.0502 C543.5,767.5502 545.6406,769.3627 548.5625,769.3627 C549.7969,769.3627 550.9688,769.0659 551.7188,768.5502 C552.3281,768.1284 552.6563,767.7065 552.6563,767.3002 C552.6563,766.8315 552.2344,766.4252 551.7344,766.4252 C551.5,766.4252 551.2813,766.5034 551.0781,766.7065 C550.6406,767.144 550.6406,767.144 550.4688,767.2377 C550.0156,767.4721 549.375,767.6127 548.6094,767.6127 C546.6094,767.6127 545.3281,766.5971 545.3281,765.019 L545.3281,763.9721 C545.3281,762.269 546.5469,761.0659 548.25,761.0659 C548.8281,761.0659 549.4063,761.2065 549.875,761.4565 C550.3438,761.7221 550.5156,761.9096 550.5781,762.269 C550.7031,762.9409 550.9531,763.1909 551.4844,763.1909 C551.7656,763.1909 552.0469,763.0502 552.2344,762.8315 C552.3594,762.6596 552.4063,762.4877 552.4063,762.0502 L552.4063,760.6909 C552.4063,760.269 552.3906,760.1284 552.2656,759.9565 C552.0938,759.7065 551.8125,759.5502 551.4844,759.5502 C551.1719,759.5502 550.9688,759.6596 550.75,759.9252 C549.5781,759.4252 549.1406,759.3159 548.1875,759.3159 C545.5156,759.3159 543.5,761.3315 543.5,763.9565 L543.5,765.0502 Z " fill="#000000"/><text fill="#000000" font-family="sans-serif" font-size="14" lengthAdjust="spacing" textLength="101" x="564.5" y="768.5">ManipulaFolhas</text><line style="stroke:#181818;stroke-width:0.5;" x1="525.5" x2="676.5" y1="779.894" y2="779.894"/><line style="stroke:#181818;stroke-width:0.5;" x1="525.5" x2="676.5" y1="787.894" y2="787.894"/><ellipse cx="535.5" cy="801.7939" fill="#84BE84" rx="3" ry="3" style="stroke:#038048;stroke-width:1.0;"/><text fill="#000000" font-family="sans-serif" font-size="14" lengthAdjust="spacing" textLength="127" x="544.5" y="804.8999">someMethod(): void</text></g><!--class PlotFolhas--><g id="elem_PlotFolhas"><rect codeLine="43" fill="#F1F1F1" height="131.9996" id="PlotFolhas" rx="2.5" ry="2.5" style="stroke:#181818;stroke-width:0.5;" width="279" x="471.5" y="482.294"/><ellipse cx="573.25" cy="498.294" fill="#ADD1B2" rx="11" ry="11" style="stroke:#181818;stroke-width:1.0;"/><path d="M568.25,499.4502 C568.25,501.9502 570.3906,503.7627 573.3125,503.7627 C574.5469,503.7627 575.7188,503.4659 576.4688,502.9502 C577.0781,502.5284 577.4063,502.1065 577.4063,501.7002 C577.4063,501.2315 576.9844,500.8252 576.4844,500.8252 C576.25,500.8252 576.0313,500.9034 575.8281,501.1065 C575.3906,501.544 575.3906,501.544 575.2188,501.6377 C574.7656,501.8721 574.125,502.0127 573.3594,502.0127 C571.3594,502.0127 570.0781,500.9971 570.0781,499.419 L570.0781,498.3721 C570.0781,496.669 571.2969,495.4659 573,495.4659 C573.5781,495.4659 574.1563,495.6065 574.625,495.8565 C575.0938,496.1221 575.2656,496.3096 575.3281,496.669 C575.4531,497.3409 575.7031,497.5909 576.2344,497.5909 C576.5156,497.5909 576.7969,497.4502 576.9844,497.2315 C577.1094,497.0596 577.1563,496.8877 577.1563,496.4502 L577.1563,495.0909 C577.1563,494.669 577.1406,494.5284 577.0156,494.3565 C576.8438,494.1065 576.5625,493.9502 576.2344,493.9502 C575.9219,493.9502 575.7188,494.0596 575.5,494.3252 C574.3281,493.8252 573.8906,493.7159 572.9375,493.7159 C570.2656,493.7159 568.25,495.7315 568.25,498.3565 L568.25,499.4502 Z " fill="#000000"/><text fill="#000000" font-family="sans-serif" font-size="14" lengthAdjust="spacing" textLength="67" x="593.75" y="502.9">PlotFolhas</text><line style="stroke:#181818;stroke-width:0.5;" x1="472.5" x2="749.5" y1="514.294" y2="514.294"/><rect fill="none" height="6" style="stroke:#C82930;stroke-width:1.0;" width="6" x="479.5" y="525.1939"/><text fill="#000000" font-family="sans-serif" font-size="14" lengthAdjust="spacing" textLength="218" x="491.5" y="531.2999">dicionarioFolhas: DicionarioFolhas</text><rect fill="none" height="6" style="stroke:#C82930;stroke-width:1.0;" width="6" x="479.5" y="541.9939"/><text fill="#000000" font-family="sans-serif" font-size="14" lengthAdjust="spacing" textLength="182" x="491.5" y="548.0999">seletorFolhas: SeletorFolhas</text><rect fill="none" height="6" style="stroke:#C82930;stroke-width:1.0;" width="6" x="479.5" y="558.7938"/><text fill="#000000" font-family="sans-serif" font-size="14" lengthAdjust="spacing" textLength="118" x="491.5" y="564.8998">ax: matplotlib.axes</text><line style="stroke:#181818;stroke-width:0.5;" x1="472.5" x2="749.5" y1="572.6938" y2="572.6938"/><ellipse cx="482.5" cy="586.5937" fill="#84BE84" rx="3" ry="3" style="stroke:#038048;stroke-width:1.0;"/><text fill="#000000" font-family="sans-serif" font-size="14" lengthAdjust="spacing" textLength="148" x="491.5" y="589.6997">on_canvas_click(): void</text><ellipse cx="482.5" cy="603.3937" fill="#84BE84" rx="3" ry="3" style="stroke:#038048;stroke-width:1.0;"/><text fill="#000000" font-family="sans-serif" font-size="14" lengthAdjust="spacing" textLength="253" x="491.5" y="606.4996">determine_folha_clicada(): FolhaEstudo</text></g><!--class SeletorFolhas--><g id="elem_SeletorFolhas"><rect codeLine="53" fill="#F1F1F1" height="115.1997" id="SeletorFolhas" rx="2.5" ry="2.5" style="stroke:#181818;stroke-width:0.5;" width="244" x="92" y="490.694"/><ellipse cx="165.75" cy="506.694" fill="#ADD1B2" rx="11" ry="11" style="stroke:#181818;stroke-width:1.0;"/><path d="M160.75,507.8502 C160.75,510.3502 162.8906,512.1627 165.8125,512.1627 C167.0469,512.1627 168.2188,511.8659 168.9688,511.3502 C169.5781,510.9284 169.9063,510.5065 169.9063,510.1002 C169.9063,509.6315 169.4844,509.2252 168.9844,509.2252 C168.75,509.2252 168.5313,509.3034 168.3281,509.5065 C167.8906,509.944 167.8906,509.944 167.7188,510.0377 C167.2656,510.2721 166.625,510.4127 165.8594,510.4127 C163.8594,510.4127 162.5781,509.3971 162.5781,507.819 L162.5781,506.7721 C162.5781,505.069 163.7969,503.8659 165.5,503.8659 C166.0781,503.8659 166.6563,504.0065 167.125,504.2565 C167.5938,504.5221 167.7656,504.7096 167.8281,505.069 C167.9531,505.7409 168.2031,505.9909 168.7344,505.9909 C169.0156,505.9909 169.2969,505.8502 169.4844,505.6315 C169.6094,505.4596 169.6563,505.2877 169.6563,504.8502 L169.6563,503.4909 C169.6563,503.069 169.6406,502.9284 169.5156,502.7565 C169.3438,502.5065 169.0625,502.3502 168.7344,502.3502 C168.4219,502.3502 168.2188,502.4596 168,502.7252 C166.8281,502.2252 166.3906,502.1159 165.4375,502.1159 C162.7656,502.1159 160.75,504.1315 160.75,506.7565 L160.75,507.8502 Z " fill="#000000"/><text fill="#000000" font-family="sans-serif" font-size="14" lengthAdjust="spacing" textLength="88" x="186.25" y="511.3">SeletorFolhas</text><line style="stroke:#181818;stroke-width:0.5;" x1="93" x2="335" y1="522.694" y2="522.694"/><rect fill="none" height="6" style="stroke:#C82930;stroke-width:1.0;" width="6" x="100" y="533.5939"/><text fill="#000000" font-family="sans-serif" font-size="14" lengthAdjust="spacing" textLength="177" x="112" y="539.6999">frameSeletor: FrameSeletor</text><rect fill="none" height="6" style="stroke:#C82930;stroke-width:1.0;" width="6" x="100" y="550.3939"/><text fill="#000000" font-family="sans-serif" font-size="14" lengthAdjust="spacing" textLength="218" x="112" y="556.4999">dicionarioFolhas: DicionarioFolhas</text><line style="stroke:#181818;stroke-width:0.5;" x1="93" x2="335" y1="564.2938" y2="564.2938"/><ellipse cx="103" cy="578.1938" fill="#84BE84" rx="3" ry="3" style="stroke:#038048;stroke-width:1.0;"/><text fill="#000000" font-family="sans-serif" font-size="14" lengthAdjust="spacing" textLength="112" x="112" y="581.2998">atualizarID(): void</text><ellipse cx="103" cy="594.9937" fill="#84BE84" rx="3" ry="3" style="stroke:#038048;stroke-width:1.0;"/><text fill="#000000" font-family="sans-serif" font-size="14" lengthAdjust="spacing" textLength="178" x="112" y="598.0997">atualizarFolhaEstudo(): void</text></g><!--link PreditorTerraUI to FrameSeletor--><g id="link_PreditorTerraUI_FrameSeletor"><path codeLine="61" d="M207.84,156.734 C197.81,180.314 188.3957,202.4515 177.7257,227.5715 " fill="none" id="PreditorTerraUI-to-FrameSeletor" style="stroke:#181818;stroke-width:1.0;"/><polygon fill="#181818" points="175.38,233.094,182.5802,226.3741,177.3348,228.4919,175.2169,223.2465,175.38,233.094" style="stroke:#181818;stroke-width:1.0;"/><text fill="#000000" font-family="sans-serif" font-size="13" lengthAdjust="spacing" textLength="32" x="195" y="199.571">has-a</text></g><!--link PreditorTerraUI to FramePlot--><g id="link_PreditorTerraUI_FramePlot"><path codeLine="62" d="M284.44,156.734 C308.63,182.944 333.4119,209.7937 358.5019,236.9937 " fill="none" id="PreditorTerraUI-to-FramePlot" style="stroke:#181818;stroke-width:1.0;"/><polygon fill="#181818" points="362.57,241.404,359.408,232.0765,359.1799,237.7288,353.5276,237.5007,362.57,241.404" style="stroke:#181818;stroke-width:1.0;"/><text fill="#000000" font-family="sans-serif" font-size="13" lengthAdjust="spacing" textLength="32" x="328" y="199.571">has-a</text></g><!--link FramePlot to PlotFolhas--><g id="link_FramePlot_PlotFolhas"><path codeLine="63" d="M474.62,374.354 C501.04,407.854 529.3857,443.7918 555.7757,477.2718 " fill="none" id="FramePlot-to-PlotFolhas" style="stroke:#181818;stroke-width:1.0;"/><polygon fill="#181818" points="559.49,481.984,557.06,472.4396,556.3948,478.0572,550.7772,477.3919,559.49,481.984" style="stroke:#181818;stroke-width:1.0;"/><text fill="#000000" font-family="sans-serif" font-size="13" lengthAdjust="spacing" textLength="28" x="518" y="427.371">uses</text></g><!--link FrameSeletor to SeletorFolhas--><g id="link_FrameSeletor_SeletorFolhas"><path codeLine="64" d="M134.99,382.634 C134.99,398.904 136.55,415.874 141,431.294 C146.97,451.984 154.5888,467.5012 166.1488,485.4312 " fill="none" id="FrameSeletor-to-SeletorFolhas" style="stroke:#181818;stroke-width:1.0;"/><polygon fill="#181818" points="169.4,490.474,167.885,480.7423,166.6906,486.2717,161.1613,485.0773,169.4,490.474" style="stroke:#181818;stroke-width:1.0;"/><text fill="#000000" font-family="sans-serif" font-size="13" lengthAdjust="spacing" textLength="28" x="142" y="427.371">uses</text></g><!--link SeletorFolhas to FrameSeletor--><g id="link_SeletorFolhas_FrameSeletor"><path codeLine="69" d="M197.31,490.334 C190.41,466.794 182.32,439.234 175,414.294 C171.99,404.044 170.4998,398.9911 167.3798,388.3611 " fill="none" id="SeletorFolhas-to-FrameSeletor" style="stroke:#181818;stroke-width:1.0;"/><polygon fill="#181818" points="165.69,382.604,164.3866,392.3662,167.0981,387.4016,172.0628,390.1132,165.69,382.604" style="stroke:#181818;stroke-width:1.0;"/><text fill="#000000" font-family="sans-serif" font-size="13" lengthAdjust="spacing" textLength="46" x="181" y="427.371">updates</text></g><!--link PlotFolhas to DicionarioFolhas--><g id="link_PlotFolhas_DicionarioFolhas"><path codeLine="65" d="M552.8,614.584 C525.1,645.664 496.053,678.2656 468.333,709.3556 " fill="none" id="PlotFolhas-to-DicionarioFolhas" style="stroke:#181818;stroke-width:1.0;"/><polygon fill="#181818" points="464.34,713.834,473.3151,709.7783,467.6675,710.102,467.3439,704.4544,464.34,713.834" style="stroke:#181818;stroke-width:1.0;"/><text fill="#000000" font-family="sans-serif" font-size="13" lengthAdjust="spacing" textLength="28" x="521" y="659.371">uses</text></g><!--link SeletorFolhas to DicionarioFolhas--><g id="link_SeletorFolhas_DicionarioFolhas"><path codeLine="66" d="M261.46,606.144 C288.78,638.874 319.3648,675.5181 347.7748,709.5481 " fill="none" id="SeletorFolhas-to-DicionarioFolhas" style="stroke:#181818;stroke-width:1.0;"/><polygon fill="#181818" points="351.62,714.154,348.9227,704.6817,348.4156,710.3157,342.7816,709.8086,351.62,714.154" style="stroke:#181818;stroke-width:1.0;"/><text fill="#000000" font-family="sans-serif" font-size="13" lengthAdjust="spacing" textLength="28" x="305" y="659.371">uses</text></g><!--link FramePlot to DicionarioFolhas--><g id="link_FramePlot_DicionarioFolhas"><path codeLine="67" d="M420.64,374.304 C417.39,464.044 411.8167,618.4179 408.5767,708.0679 " fill="none" id="FramePlot-to-DicionarioFolhas" style="stroke:#181818;stroke-width:1.0;"/><polygon fill="#181818" points="408.36,714.064,412.6824,705.2143,408.5406,709.0672,404.6877,704.9254,408.36,714.064" style="stroke:#181818;stroke-width:1.0;"/><text fill="#000000" font-family="sans-serif" font-size="13" lengthAdjust="spacing" textLength="28" x="419" y="552.871">uses</text></g><!--link FramePlot to SeletorFolhas--><g id="link_FramePlot_SeletorFolhas"><path codeLine="68" d="M365.61,374.354 C333.71,410.744 298.355,451.072 267.755,485.982 " fill="none" id="FramePlot-to-SeletorFolhas" style="stroke:#181818;stroke-width:1.0;"/><polygon fill="#181818" points="263.8,490.494,272.7405,486.3626,267.0958,486.734,266.7244,481.0893,263.8,490.494" style="stroke:#181818;stroke-width:1.0;"/><text fill="#000000" font-family="sans-serif" font-size="13" lengthAdjust="spacing" textLength="28" x="325" y="427.371">uses</text></g><!--SRC=[jLJ1RkCW4BttAv1FhQ9KsgiFUzaqgqXRALBQipKnanGPWmNZgBkh_VS5QiU0awezr2TWdfdttWpJGTt04LdnRD6mZI8q1wYnO7zlcFjg2TQohK4kI9idD0QUDqFCVqjcj2PMCchkdvhe-62WnHrATB-vy3hQvgYj33UintKKjqXzL_NYziu1Jbhm4Fjt4t6BRqw8jI1K23foZbrOHc4kQg4L6A7NMhw0BTagEqbuXFj7v2xUndBymOEbdkkIMJAvak6_sxj8p5iOg0Sf_e3v1NkKw-cU13iN7hpxXEhEuKSLs_FwYsq9IJsHJ8oJqutjjm82zWXATBq4SWdJ3in999eFGcBkTms6eFhMD4w0kphtOR_NhoNxYRf5Ch_FWGKxee5gCi4pTZkA42uR6J2RLH9BIZFgc75TCEioFYAzQFwE6Ruo9DIHWUBiuOIARFOWpwLBZFYAue7pgGNoDPHYVm-lQ2CvMbKrg1FOgfQYRcQTlM0StKXfXS8gl8w00muU6RNv1HCyeTftGd3XXrO7SUpDXTv8cAUD4Ss6gpFe4wOjfdVwLlvCwpbw_G4xXVaqNIw_9znALhYaIoYk8ttz9zWq2JnW6ptnehTe1y0u8prcbzP-W4LTvK6hcJ43BZNyNMXAxOEmo-pcMJFJ-eu3UUH_]--></g></svg>