<?xml version="1.0" encoding="us-ascii" standalone="no"?><svg xmlns="http://www.w3.org/2000/svg" xmlns:xlink="http://www.w3.org/1999/xlink" contentStyleType="text/css" height="706px" preserveAspectRatio="none" style="width:538px;height:706px;background:#FFFFFF;" version="1.1" viewBox="0 0 538 706" width="538px" zoomAndPan="magnify"><defs/><g><text fill="#000000" font-family="Verdana" font-size="22" font-weight="bold" lengthAdjust="spacing" textLength="505" x="15" y="35.4381">Integra&#231;&#227;o de Dados Geol&#243;gicos e Modelos de IA</text><!--class dados_geologicos--><g id="elem_dados_geologicos"><rect codeLine="42" fill="#FFFFFF" height="94.3998" id="dados_geologicos" rx="2.5" ry="2.5" style="stroke:#000000;stroke-width:1.0;" width="222" x="172.5" y="59.4001"/><ellipse cx="221.75" cy="73.4001" fill="#FFFFFF" rx="9" ry="9" style="stroke:#000000;stroke-width:1.0;"/><path d="M220.6094,74.4626 L221.9219,74.4626 L221.9219,74.5095 C221.9219,74.9157 221.9375,75.072 222.0469,75.2282 C222.2188,75.4782 222.5156,75.6501 222.8281,75.6501 C223.1094,75.6501 223.4063,75.5095 223.5781,75.2907 C223.7031,75.1032 223.75,74.9626 223.75,74.5095 L223.75,72.6657 C223.75,72.3376 223.7344,72.2282 223.6719,72.0563 C223.5625,71.7595 223.2031,71.5095 222.8281,71.5095 C222.5313,71.5095 222.2656,71.6501 222.0938,71.8688 C221.9531,72.0563 221.9219,72.2282 221.9219,72.6657 L221.9219,72.7282 L220.6094,72.7282 L220.6094,70.5563 L224.4531,70.5563 L224.4531,71.3063 C224.4531,71.697 224.4844,71.8845 224.5938,72.0407 C224.7656,72.2907 225.0625,72.4626 225.375,72.4626 C225.6719,72.4626 225.9375,72.3376 226.125,72.1032 C226.2656,71.9157 226.2969,71.7751 226.2969,71.3063 L226.2969,68.8063 L218.5938,68.8063 C218.1406,68.8063 218.0156,68.822 217.8438,68.9313 C217.5781,69.1032 217.4063,69.3688 217.4063,69.6813 C217.4063,69.9626 217.5313,70.2282 217.7813,70.4001 C217.9688,70.5251 218.1563,70.5563 218.5938,70.5563 L218.7813,70.5563 L218.7813,76.6501 L218.5938,76.6501 C218.1719,76.6501 218.0156,76.6813 217.8438,76.7751 C217.5781,76.9313 217.4063,77.2126 217.4063,77.5095 C217.4063,78.0876 217.8125,78.4001 218.5938,78.4001 L226.6719,78.4001 L226.6719,75.8688 C226.6719,75.4626 226.6406,75.2907 226.5313,75.1345 C226.3594,74.8688 226.0781,74.7126 225.75,74.7126 C225.4688,74.7126 225.1875,74.8532 225,75.072 C224.8594,75.2595 224.8281,75.4157 224.8281,75.8688 L224.8281,76.6501 L220.6094,76.6501 L220.6094,74.4626 Z " fill="#000000"/><text fill="#000000" font-family="Verdana" font-size="14" lengthAdjust="spacing" textLength="116" x="239.25" y="78.0061">Dados Geol&#243;gicos</text><line style="stroke:#000000;stroke-width:1.0;" x1="173.5" x2="393.5" y1="87.4001" y2="87.4001"/><ellipse cx="183.5" cy="101.3001" fill="none" rx="3" ry="3" style="stroke:#000000;stroke-width:1.0;"/><text fill="#000000" font-family="Verdana" font-size="14" lengthAdjust="spacing" textLength="169" x="190.5" y="104.406">Localiza&#231;&#227;o: Coordenadas</text><ellipse cx="183.5" cy="118.1" fill="none" rx="3" ry="3" style="stroke:#000000;stroke-width:1.0;"/><text fill="#000000" font-family="Verdana" font-size="14" lengthAdjust="spacing" textLength="138" x="190.5" y="121.206">Tipo de Rocha: String</text><ellipse cx="183.5" cy="134.8999" fill="none" rx="3" ry="3" style="stroke:#000000;stroke-width:1.0;"/><text fill="#000000" font-family="Verdana" font-size="14" lengthAdjust="spacing" textLength="198" x="190.5" y="138.0059">Dados de Mineraliza&#231;&#227;o: String</text><line style="stroke:#000000;stroke-width:1.0;" x1="173.5" x2="393.5" y1="145.7999" y2="145.7999"/></g><!--class banco_de_dados--><g id="elem_banco_de_dados"><rect codeLine="48" fill="#FFFFFF" height="109.9996" id="banco_de_dados" rx="2.5" ry="2.5" style="stroke:#000000;stroke-width:1.0;" width="168" x="199.5" y="230.8001"/><ellipse cx="215.65" cy="252.6" fill="#FFFFFF" rx="9" ry="9" style="stroke:#000000;stroke-width:1.0;"/><path d="M214.5094,253.6625 L215.8219,253.6625 L215.8219,253.7094 C215.8219,254.1156 215.8375,254.2719 215.9469,254.4281 C216.1188,254.6781 216.4156,254.85 216.7281,254.85 C217.0094,254.85 217.3063,254.7094 217.4781,254.4906 C217.6031,254.3031 217.65,254.1625 217.65,253.7094 L217.65,251.8656 C217.65,251.5375 217.6344,251.4281 217.5719,251.2563 C217.4625,250.9594 217.1031,250.7094 216.7281,250.7094 C216.4313,250.7094 216.1656,250.85 215.9938,251.0688 C215.8531,251.2563 215.8219,251.4281 215.8219,251.8656 L215.8219,251.9281 L214.5094,251.9281 L214.5094,249.7563 L218.3531,249.7563 L218.3531,250.5063 C218.3531,250.8969 218.3844,251.0844 218.4938,251.2406 C218.6656,251.4906 218.9625,251.6625 219.275,251.6625 C219.5719,251.6625 219.8375,251.5375 220.025,251.3031 C220.1656,251.1156 220.1969,250.975 220.1969,250.5063 L220.1969,248.0063 L212.4938,248.0063 C212.0406,248.0063 211.9156,248.0219 211.7438,248.1313 C211.4781,248.3031 211.3063,248.5688 211.3063,248.8813 C211.3063,249.1625 211.4313,249.4281 211.6813,249.6 C211.8688,249.725 212.0563,249.7563 212.4938,249.7563 L212.6813,249.7563 L212.6813,255.85 L212.4938,255.85 C212.0719,255.85 211.9156,255.8813 211.7438,255.975 C211.4781,256.1313 211.3063,256.4125 211.3063,256.7094 C211.3063,257.2875 211.7125,257.6 212.4938,257.6 L220.5719,257.6 L220.5719,255.0688 C220.5719,254.6625 220.5406,254.4906 220.4313,254.3344 C220.2594,254.0688 219.9781,253.9125 219.65,253.9125 C219.3688,253.9125 219.0875,254.0531 218.9,254.2719 C218.7594,254.4594 218.7281,254.6156 218.7281,255.0688 L218.7281,255.85 L214.5094,255.85 L214.5094,253.6625 Z " fill="#000000"/><text fill="#000000" font-family="Verdana" font-size="14" lengthAdjust="spacing" textLength="105" x="242.35" y="248.806">Banco de Dados</text><text fill="#000000" font-family="Verdana" font-size="14" lengthAdjust="spacing" textLength="133" x="228.35" y="265.606">PostgreSQL/PostGIS</text><line style="stroke:#000000;stroke-width:1.0;" x1="200.5" x2="366.5" y1="274.3999" y2="274.3999"/><line style="stroke:#000000;stroke-width:1.0;" x1="200.5" x2="366.5" y1="282.3999" y2="282.3999"/><ellipse cx="210.5" cy="296.2999" fill="#FFFFFF" rx="3" ry="3" style="stroke:#000000;stroke-width:1.0;"/><text fill="#000000" font-family="Verdana" font-size="14" lengthAdjust="spacing" textLength="144" x="217.5" y="299.4059">AdicionarDados(): void</text><ellipse cx="210.5" cy="313.0998" fill="#FFFFFF" rx="3" ry="3" style="stroke:#000000;stroke-width:1.0;"/><text fill="#000000" font-family="Verdana" font-size="14" lengthAdjust="spacing" textLength="140" x="217.5" y="316.2058">AtualizarDados(): void</text><ellipse cx="210.5" cy="329.8998" fill="#FFFFFF" rx="3" ry="3" style="stroke:#000000;stroke-width:1.0;"/><text fill="#000000" font-family="Verdana" font-size="14" lengthAdjust="spacing" textLength="142" x="217.5" y="333.0057">ConsultarDados(): List</text></g><!--class modelos_de_ia--><g id="elem_modelos_de_ia"><rect codeLine="54" fill="#FFFFFF" height="111.1997" id="modelos_de_ia" rx="2.5" ry="2.5" style="stroke:#000000;stroke-width:1.0;" width="223" x="52" y="417.8001"/><ellipse cx="114.25" cy="431.8001" fill="#FFFFFF" rx="9" ry="9" style="stroke:#000000;stroke-width:1.0;"/><path d="M113.1094,432.8626 L114.4219,432.8626 L114.4219,432.9095 C114.4219,433.3157 114.4375,433.472 114.5469,433.6282 C114.7188,433.8782 115.0156,434.0501 115.3281,434.0501 C115.6094,434.0501 115.9063,433.9095 116.0781,433.6907 C116.2031,433.5032 116.25,433.3626 116.25,432.9095 L116.25,431.0657 C116.25,430.7376 116.2344,430.6282 116.1719,430.4563 C116.0625,430.1595 115.7031,429.9095 115.3281,429.9095 C115.0313,429.9095 114.7656,430.0501 114.5938,430.2688 C114.4531,430.4563 114.4219,430.6282 114.4219,431.0657 L114.4219,431.1282 L113.1094,431.1282 L113.1094,428.9563 L116.9531,428.9563 L116.9531,429.7063 C116.9531,430.097 116.9844,430.2845 117.0938,430.4407 C117.2656,430.6907 117.5625,430.8626 117.875,430.8626 C118.1719,430.8626 118.4375,430.7376 118.625,430.5032 C118.7656,430.3157 118.7969,430.1751 118.7969,429.7063 L118.7969,427.2063 L111.0938,427.2063 C110.6406,427.2063 110.5156,427.222 110.3438,427.3313 C110.0781,427.5032 109.9063,427.7688 109.9063,428.0813 C109.9063,428.3626 110.0313,428.6282 110.2813,428.8001 C110.4688,428.9251 110.6563,428.9563 111.0938,428.9563 L111.2813,428.9563 L111.2813,435.0501 L111.0938,435.0501 C110.6719,435.0501 110.5156,435.0813 110.3438,435.1751 C110.0781,435.3313 109.9063,435.6126 109.9063,435.9095 C109.9063,436.4876 110.3125,436.8001 111.0938,436.8001 L119.1719,436.8001 L119.1719,434.2688 C119.1719,433.8626 119.1406,433.6907 119.0313,433.5345 C118.8594,433.2688 118.5781,433.1126 118.25,433.1126 C117.9688,433.1126 117.6875,433.2532 117.5,433.472 C117.3594,433.6595 117.3281,433.8157 117.3281,434.2688 L117.3281,435.0501 L113.1094,435.0501 L113.1094,432.8626 Z " fill="#000000"/><text fill="#000000" font-family="Verdana" font-size="14" lengthAdjust="spacing" textLength="91" x="131.75" y="436.4061">Modelos de IA</text><line style="stroke:#000000;stroke-width:1.0;" x1="53" x2="274" y1="445.8001" y2="445.8001"/><ellipse cx="63" cy="459.7001" fill="none" rx="3" ry="3" style="stroke:#000000;stroke-width:1.0;"/><text fill="#000000" font-family="Verdana" font-size="14" lengthAdjust="spacing" textLength="199" x="70" y="462.806">Modelo de Classifica&#231;&#227;o: String</text><ellipse cx="63" cy="476.5" fill="none" rx="3" ry="3" style="stroke:#000000;stroke-width:1.0;"/><text fill="#000000" font-family="Verdana" font-size="14" lengthAdjust="spacing" textLength="172" x="70" y="479.606">Modelo de Predi&#231;&#227;o: String</text><line style="stroke:#000000;stroke-width:1.0;" x1="53" x2="274" y1="487.3999" y2="487.3999"/><ellipse cx="63" cy="501.2999" fill="#FFFFFF" rx="3" ry="3" style="stroke:#000000;stroke-width:1.0;"/><text fill="#000000" font-family="Verdana" font-size="14" lengthAdjust="spacing" textLength="137" x="70" y="504.4059">TreinarModelo(): void</text><ellipse cx="63" cy="518.0998" fill="#FFFFFF" rx="3" ry="3" style="stroke:#000000;stroke-width:1.0;"/><text fill="#000000" font-family="Verdana" font-size="14" lengthAdjust="spacing" textLength="82" x="70" y="521.2058">Prever(): List</text></g><!--class folhas_cartograficas--><g id="elem_folhas_cartograficas"><rect codeLine="61" fill="#FFFFFF" height="77.5999" id="folhas_cartograficas" rx="2.5" ry="2.5" style="stroke:#000000;stroke-width:1.0;" width="187" x="310" y="434.6001"/><ellipse cx="335.15" cy="448.6001" fill="#FFFFFF" rx="9" ry="9" style="stroke:#000000;stroke-width:1.0;"/><path d="M334.0094,449.6626 L335.3219,449.6626 L335.3219,449.7095 C335.3219,450.1157 335.3375,450.272 335.4469,450.4282 C335.6188,450.6782 335.9156,450.8501 336.2281,450.8501 C336.5094,450.8501 336.8063,450.7095 336.9781,450.4907 C337.1031,450.3032 337.15,450.1626 337.15,449.7095 L337.15,447.8657 C337.15,447.5376 337.1344,447.4282 337.0719,447.2563 C336.9625,446.9595 336.6031,446.7095 336.2281,446.7095 C335.9313,446.7095 335.6656,446.8501 335.4938,447.0688 C335.3531,447.2563 335.3219,447.4282 335.3219,447.8657 L335.3219,447.9282 L334.0094,447.9282 L334.0094,445.7563 L337.8531,445.7563 L337.8531,446.5063 C337.8531,446.897 337.8844,447.0845 337.9938,447.2407 C338.1656,447.4907 338.4625,447.6626 338.775,447.6626 C339.0719,447.6626 339.3375,447.5376 339.525,447.3032 C339.6656,447.1157 339.6969,446.9751 339.6969,446.5063 L339.6969,444.0063 L331.9938,444.0063 C331.5406,444.0063 331.4156,444.022 331.2438,444.1313 C330.9781,444.3032 330.8063,444.5688 330.8063,444.8813 C330.8063,445.1626 330.9313,445.4282 331.1813,445.6001 C331.3688,445.7251 331.5563,445.7563 331.9938,445.7563 L332.1813,445.7563 L332.1813,451.8501 L331.9938,451.8501 C331.5719,451.8501 331.4156,451.8813 331.2438,451.9751 C330.9781,452.1313 330.8063,452.4126 330.8063,452.7095 C330.8063,453.2876 331.2125,453.6001 331.9938,453.6001 L340.0719,453.6001 L340.0719,451.0688 C340.0719,450.6626 340.0406,450.4907 339.9313,450.3345 C339.7594,450.0688 339.4781,449.9126 339.15,449.9126 C338.8688,449.9126 338.5875,450.0532 338.4,450.272 C338.2594,450.4595 338.2281,450.6157 338.2281,451.0688 L338.2281,451.8501 L334.0094,451.8501 L334.0094,449.6626 Z " fill="#000000"/><text fill="#000000" font-family="Verdana" font-size="14" lengthAdjust="spacing" textLength="132" x="349.85" y="453.2061">Folhas Cartogr&#225;ficas</text><line style="stroke:#000000;stroke-width:1.0;" x1="311" x2="496" y1="462.6001" y2="462.6001"/><ellipse cx="321" cy="476.5001" fill="none" rx="3" ry="3" style="stroke:#000000;stroke-width:1.0;"/><text fill="#000000" font-family="Verdana" font-size="14" lengthAdjust="spacing" textLength="87" x="328" y="479.606">Escala: String</text><ellipse cx="321" cy="493.3" fill="none" rx="3" ry="3" style="stroke:#000000;stroke-width:1.0;"/><text fill="#000000" font-family="Verdana" font-size="14" lengthAdjust="spacing" textLength="163" x="328" y="496.406">&#193;rea de Cobertura: String</text><line style="stroke:#000000;stroke-width:1.0;" x1="311" x2="496" y1="504.1999" y2="504.1999"/></g><!--class mapas_litologicos_preditivos--><g id="elem_mapas_litologicos_preditivos"><rect codeLine="66" fill="#FFFFFF" height="93.1997" id="mapas_litologicos_preditivos" rx="2.5" ry="2.5" style="stroke:#000000;stroke-width:1.0;" width="226" x="169.5" y="606.0001"/><ellipse cx="221.75" cy="627.8" fill="#FFFFFF" rx="9" ry="9" style="stroke:#000000;stroke-width:1.0;"/><path d="M220.6094,628.8625 L221.9219,628.8625 L221.9219,628.9094 C221.9219,629.3156 221.9375,629.4719 222.0469,629.6281 C222.2188,629.8781 222.5156,630.05 222.8281,630.05 C223.1094,630.05 223.4063,629.9094 223.5781,629.6906 C223.7031,629.5031 223.75,629.3625 223.75,628.9094 L223.75,627.0656 C223.75,626.7375 223.7344,626.6281 223.6719,626.4563 C223.5625,626.1594 223.2031,625.9094 222.8281,625.9094 C222.5313,625.9094 222.2656,626.05 222.0938,626.2688 C221.9531,626.4563 221.9219,626.6281 221.9219,627.0656 L221.9219,627.1281 L220.6094,627.1281 L220.6094,624.9563 L224.4531,624.9563 L224.4531,625.7063 C224.4531,626.0969 224.4844,626.2844 224.5938,626.4406 C224.7656,626.6906 225.0625,626.8625 225.375,626.8625 C225.6719,626.8625 225.9375,626.7375 226.125,626.5031 C226.2656,626.3156 226.2969,626.175 226.2969,625.7063 L226.2969,623.2063 L218.5938,623.2063 C218.1406,623.2063 218.0156,623.2219 217.8438,623.3313 C217.5781,623.5031 217.4063,623.7688 217.4063,624.0813 C217.4063,624.3625 217.5313,624.6281 217.7813,624.8 C217.9688,624.925 218.1563,624.9563 218.5938,624.9563 L218.7813,624.9563 L218.7813,631.05 L218.5938,631.05 C218.1719,631.05 218.0156,631.0813 217.8438,631.175 C217.5781,631.3313 217.4063,631.6125 217.4063,631.9094 C217.4063,632.4875 217.8125,632.8 218.5938,632.8 L226.6719,632.8 L226.6719,630.2688 C226.6719,629.8625 226.6406,629.6906 226.5313,629.5344 C226.3594,629.2688 226.0781,629.1125 225.75,629.1125 C225.4688,629.1125 225.1875,629.2531 225,629.4719 C224.8594,629.6594 224.8281,629.8156 224.8281,630.2688 L224.8281,631.05 L220.6094,631.05 L220.6094,628.8625 Z " fill="#000000"/><text fill="#000000" font-family="Verdana" font-size="14" lengthAdjust="spacing" textLength="114" x="239.25" y="624.006">Mapas Litol&#243;gicos</text><text fill="#000000" font-family="Verdana" font-size="14" lengthAdjust="spacing" textLength="62" x="265.25" y="640.806">Preditivos</text><line style="stroke:#000000;stroke-width:1.0;" x1="170.5" x2="394.5" y1="649.5999" y2="649.5999"/><ellipse cx="180.5" cy="663.4999" fill="none" rx="3" ry="3" style="stroke:#000000;stroke-width:1.0;"/><text fill="#000000" font-family="Verdana" font-size="14" lengthAdjust="spacing" textLength="200" x="187.5" y="666.6059">&#193;reas de Potencial Mineral: List</text><ellipse cx="180.5" cy="680.2998" fill="none" rx="3" ry="3" style="stroke:#000000;stroke-width:1.0;"/><text fill="#000000" font-family="Verdana" font-size="14" lengthAdjust="spacing" textLength="202" x="187.5" y="683.4058">Precis&#227;o das Predi&#231;&#245;es: Double</text><line style="stroke:#000000;stroke-width:1.0;" x1="170.5" x2="394.5" y1="691.1998" y2="691.1998"/></g><!--link dados_geologicos to banco_de_dados--><g id="link_dados_geologicos_banco_de_dados"><path codeLine="72" d="M283.5,154.1601 C283.5,177.5401 283.5,188.0001 283.5,212.3901 " fill="none" id="dados_geologicos-to-banco_de_dados" style="stroke:#000000;stroke-width:1.0;"/><polygon fill="none" points="283.5,230.3901,289.5,212.3901,277.5,212.3901,283.5,230.3901" style="stroke:#000000;stroke-width:1.0;"/><polygon fill="#000000" points="288.5,197.6001,291.4389,188.555,285.5611,188.555,288.5,197.6001" style="stroke:#000000;stroke-width:1.0;"/><text fill="#000000" font-family="Verdana" font-size="13" lengthAdjust="spacing" textLength="59" x="297.5" y="196.8771">Armazena</text></g><!--link banco_de_dados to modelos_de_ia--><g id="link_banco_de_dados_modelos_de_ia"><path codeLine="73" d="M248.47,340.9801 C232.9,365.0601 224.3828,378.2341 208.7628,402.3941 " fill="none" id="banco_de_dados-to-modelos_de_ia" style="stroke:#000000;stroke-width:1.0;"/><polygon fill="none" points="198.99,417.5101,213.8015,405.6517,203.7242,399.1365,198.99,417.5101" style="stroke:#000000;stroke-width:1.0;"/><polygon fill="#000000" points="229.7853,383.7989,237.1643,377.7989,232.2283,374.6075,229.7853,383.7989" style="stroke:#000000;stroke-width:1.0;"/><text fill="#000000" font-family="Verdana" font-size="13" lengthAdjust="spacing" textLength="51" x="241.5" y="383.8771">Alimenta</text></g><!--link banco_de_dados to folhas_cartograficas--><g id="link_banco_de_dados_folhas_cartograficas"><path codeLine="74" d="M318.53,340.9801 C337.9,370.9401 351.7289,392.323 369.1289,419.243 " fill="none" id="banco_de_dados-to-folhas_cartograficas" style="stroke:#000000;stroke-width:1.0;"/><polygon fill="none" points="378.9,434.3601,374.168,415.986,364.0899,422.5,378.9,434.3601" style="stroke:#000000;stroke-width:1.0;"/><polygon fill="#000000" points="354.2147,383.799,351.7718,374.6075,346.8357,377.7988,354.2147,383.799" style="stroke:#000000;stroke-width:1.0;"/><text fill="#000000" font-family="Verdana" font-size="13" lengthAdjust="spacing" textLength="36" x="360.5" y="383.8771">Utiliza</text></g><!--link modelos_de_ia to mapas_litologicos_preditivos--><g id="link_modelos_de_ia_mapas_litologicos_preditivos"><path codeLine="75" d="M200.5,529.5001 C216.94,553.9801 226.0337,567.5278 241.6837,590.8278 " fill="none" id="modelos_de_ia-to-mapas_litologicos_preditivos" style="stroke:#000000;stroke-width:1.0;"/><polygon fill="none" points="251.72,605.7701,246.6644,587.4824,236.7029,594.1733,251.72,605.7701" style="stroke:#000000;stroke-width:1.0;"/><polygon fill="#000000" points="238.2875,571.951,235.6847,562.8035,230.805,566.0804,238.2875,571.951" style="stroke:#000000;stroke-width:1.0;"/><text fill="#000000" font-family="Verdana" font-size="13" lengthAdjust="spacing" textLength="28" x="244.5" y="572.0771">Gera</text></g><!--link folhas_cartograficas to mapas_litologicos_preditivos--><g id="link_folhas_cartograficas_mapas_litologicos_preditivos"><path codeLine="76" d="M377.54,512.4101 C358.86,539.7701 343.732,561.9361 323.932,590.9261 " fill="none" id="folhas_cartograficas-to-mapas_litologicos_preditivos" style="stroke:#000000;stroke-width:1.0;"/><polygon fill="none" points="313.78,605.7901,328.8866,594.3101,318.9773,587.5421,313.78,605.7901" style="stroke:#000000;stroke-width:1.0;"/><polygon fill="#000000" points="345.6806,571.9294,353.2081,566.1166,348.3538,562.8022,345.6806,571.9294" style="stroke:#000000;stroke-width:1.0;"/><text fill="#000000" font-family="Verdana" font-size="13" lengthAdjust="spacing" textLength="45" x="357.5" y="572.0771">Suporta</text></g><!--SRC=[ZLFBZjD04BpxAvgz048hxZwi519OHKgaG9ORajNnT9oMnZFMp3WI-pZifo0EV03Y2_nZpCC9SM8Gjv6hkgkwk-pOIOAvSbGPx7vqtpK8WXaARU6MjEn-LbpwDy5I2vB-vU7v97lXTbGJD19PPLds4cQqPSLz1_G5oh50GJOBB_SLhYwQNe7dYV2rgFnNdPGUCe0tiD0bIhvFbdAOQcq4AVIT8tp7JJJwIPSxp67j3Aig8ad5GqjMP4vxzAIdxEZe7QhopxnVr4fRLnbQVroy3S_R-JfQt0HQ8QY8Ndk34y4bQuKcrhvwdSDUiqYGQwFk23JLohRIdK0BjkxKqs3DKRvENu81nbuziG9fAj5Qtd9vDkQGjJ8a-99mPuZz28atCEeBzcJ637xGSkTTJT4uNPdkMv1Efzn6f2WJWX7e_Rwt_fp3GtNFXZ1Ee3TaN6jmx4HBR7oJ1RjZQloPmZ2Ezts2wa0fPA2a21NDaT3BHwsuqvLsf4f6USX7Fs0_Syds4E33odwHpM6csusaOEmowOOa9bvs4URhwyURy_paC34rtliqmqrsXaN-yE2UBhds-_WRVNJjENns74BeYuRzaiI_TfRxdzI4mj7E_rE_RXjjek7V]--></g></svg>